<?xml version="1.0" encoding="utf-8"?>
<!-- Generator: Adobe Illustrator 22.1.0, SVG Export Plug-In . SVG Version: 6.00 Build 0)  -->
<svg version="1.1" xmlns="http://www.w3.org/2000/svg" xmlns:xlink="http://www.w3.org/1999/xlink" x="0px" y="0px"
	 viewBox="0 0 1600 1069.1" style="enable-background:new 0 0 1600 1069.1;" xml:space="preserve">
<style type="text/css">
	.st0{fill:none;}
	.st1{opacity:0.2;fill:#282C36;}
	.st2{fill:#D0CCFF;}
	.st3{fill:#FFFFFF;}
	.st4{fill:url(#XMLID_2_);}
	.st5{enable-background:new    ;}
	.st6{fill:url(#XMLID_3_);}
	.st7{fill:#0DDCB7;}
	.st8{fill:url(#XMLID_4_);}
	.st9{fill:#A3FDEE;}
	.st10{fill:url(#XMLID_5_);}
	.st11{fill:url(#XMLID_6_);}
	.st12{fill:url(#XMLID_7_);}
	.st13{fill:url(#XMLID_8_);}
	.st14{fill:#282C36;}
	.st15{fill:#3F1DCB;}
	.st16{fill:#FBD8C2;}
	.st17{fill:#3F1DC9;}
	.st18{fill:#21132A;}
	.st19{fill:#2A1929;}
	.st20{opacity:0.2;}
	.st21{fill:#BDBEC1;}
	.st22{fill:#FFF256;}
	.st23{fill:#757575;}
	.st24{fill:#854917;}
	.st25{opacity:0.1;}
	.st26{opacity:0.27;}
	.st27{fill:#5E5F5F;}
	.st28{fill:#844A17;}
	.st29{fill:#BEBFC2;}
	.st30{fill:#050606;}
	.st31{fill:#171919;}
	.st32{opacity:0.5;}
	.st33{fill:#E69E74;}
	.st34{fill:#3F1DCA;}
	.st35{opacity:0.3;fill:#282C36;}
	.st36{fill:#FF5216;}
	.st37{opacity:0.15;}
	.st38{opacity:0.15;fill:#282C36;}
	.st39{opacity:0.1;fill:#282C36;}
	.st40{fill:#DF108A;}
	.st41{fill:#7C4DFF;}
</style>
<pattern  x="400" y="180.6" width="48" height="48" patternUnits="userSpaceOnUse" id="_x36__dpi_30_x25_" viewBox="3.6 -51.6 48 48" style="overflow:visible;">
	<g>
		<rect x="3.6" y="-51.6" class="st0" width="48" height="48"/>
		<g>
			<circle class="st1" cx="27.6" cy="-3.6" r="3.6"/>
			<circle class="st1" cx="51.6" cy="-3.6" r="3.6"/>
			<circle class="st1" cx="27.6" cy="-27.6" r="3.6"/>
			<circle class="st1" cx="51.6" cy="-27.6" r="3.6"/>
			<circle class="st1" cx="39.6" cy="-15.6" r="3.6"/>
			<circle class="st1" cx="15.6" cy="-15.6" r="3.6"/>
			<circle class="st1" cx="39.6" cy="-39.6" r="3.6"/>
			<circle class="st1" cx="15.6" cy="-39.6" r="3.6"/>
		</g>
		<g>
			<circle class="st1" cx="3.6" cy="-3.6" r="3.6"/>
			<circle class="st1" cx="3.6" cy="-27.6" r="3.6"/>
		</g>
		<g>
			<circle class="st1" cx="27.6" cy="-51.6" r="3.6"/>
			<circle class="st1" cx="51.6" cy="-51.6" r="3.6"/>
		</g>
		<g>
			<circle class="st1" cx="3.6" cy="-51.6" r="3.6"/>
		</g>
	</g>
</pattern>
<g id="BACKGROUND">
</g>
<g id="OBJECTS">
	<g>
		<path class="st2" d="M1494,801.6c-35.4-44.7-91.3-55.5-138.2-83.5c-25.1-15-42.8-36.9-43.5-67.2c-0.8-37.5,19.2-70.8,37.7-102
			c17.2-28.9,33.9-58.1,42-91c7.3-29.9,8.6-60.8,4.4-91.3c-8.5-61.3-39.7-117.7-89.2-155.6c-48.5-37.1-111.9-56.2-173.1-50.2
			c-34.1,3.4-65.3,18.6-99,22.4c-14.2,1.6-30.6,0.4-42.8-7.9c-13.8-9.4-16.8-26.9-23.5-41.2C945,83.6,886.1,58.9,832.3,59
			c-70.4,0.1-132.5,40.4-189.2,77.3c-32.7,21.3-64.9,43.7-98.3,63.9c-15.8,9.5-31.6,16.4-50.3,17.5c-20.5,1.2-41.1-1.8-61.5-2.6
			c-68.1-2.5-141.2,7.1-197.2,48.7c-48.2,35.9-80.4,91.3-74.7,152.3c3.1,32.8,13.8,63.7,23.7,94.9c9.3,29.2,19.3,60.7,14.3,91.7
			c-5.2,31.7-26.9,55.1-49,76.9c-22.1,22-44.6,43.6-59.8,71.2C62.1,802.3,56.2,866,74.2,921.8c5.3,16.5,12.8,31.5,21.7,45.7h4.9
			c3,2.7,7.1,4.4,12.3,4.4H1510c5.2,0,9.3-1.7,12.3-4.4h8.6C1538.7,907.7,1530.7,848.1,1494,801.6z"/>
		<path class="st0" d="M1497.1,933.9c0.7-24.2-2-48.3-9.7-71.4c-17.7-53.3-62.9-74.1-111-95.3c-47.3-20.8-92-49.4-98.4-104.9
			c-7.9-67.4,40.3-119.5,67.1-176.6c53-112.3-10.8-248.3-129.9-282.5c-28-8-57.7-10.7-86.6-6.8c-31.9,4.3-61.4,18.7-93.6,21.7
			c-25,2.4-53-3.5-71.6-21.1c-20.6-19.4-22.2-49.8-42-70c-40.4-41-104.9-38.7-155.1-19.7c-66,24.9-124.9,71.6-183.4,109.8
			c-27.8,18.1-54.4,33.6-88.4,35.4c-35.1,1.8-70.3-4.2-105.5-2.3c-62.7,3.3-128.1,23.7-166.9,75.5c-39,52.1-25,108.5-6.7,165.5
			c17.7,55,32.8,113.5-0.3,166.1c-30.4,48.3-83.5,77.2-104.1,132.4c-17.3,46.5-15.8,99.6,5.8,144.3H1497.1z"/>
	</g>
	<ellipse id="XMLID_74_" class="st3" cx="808.4" cy="965.2" rx="732.8" ry="41.9"/>
	<pattern  id="XMLID_2_" xlink:href="#_x36__dpi_30_x25_" patternTransform="matrix(0.5691 0 0 0.6004 -2374.436 1410.9427)">
	</pattern>
	<ellipse id="XMLID_225_" class="st4" cx="808.4" cy="964.5" rx="732.8" ry="41.9"/>
	<g id="XMLID_267_">
		<g id="XMLID_268_" class="st5">
			<g id="XMLID_283_">
				<linearGradient id="XMLID_3_" gradientUnits="userSpaceOnUse" x1="448.7755" y1="721.4442" x2="617.1642" y2="721.4442">
					<stop  offset="0" style="stop-color:#E6E7E8"/>
					<stop  offset="1" style="stop-color:#939598"/>
				</linearGradient>
				<polygon id="XMLID_284_" class="st6" points="560.2,723.1 448.8,720 501.8,719.8 617.2,722.8 				"/>
			</g>
			<g id="XMLID_281_">
				<polygon id="XMLID_282_" class="st7" points="406.9,853.1 406.9,959.8 306.1,937.8 306.1,839.7 				"/>
			</g>
			<g id="XMLID_279_">
				<polygon id="XMLID_280_" class="st7" points="406.9,723.7 306.1,720.5 306.1,623.1 406.9,617.7 				"/>
			</g>
			<g id="XMLID_277_">
				<linearGradient id="XMLID_4_" gradientUnits="userSpaceOnUse" x1="259.2721" y1="722.1837" x2="406.8961" y2="722.1837">
					<stop  offset="0" style="stop-color:#E6E7E8"/>
					<stop  offset="1" style="stop-color:#939598"/>
				</linearGradient>
				<polygon id="XMLID_278_" class="st8" points="356.5,723.8 259.3,720.7 306.1,720.5 406.9,723.7 				"/>
			</g>
			<g id="XMLID_275_">
				<polygon id="XMLID_276_" class="st7" points="181.4,856.9 96.9,842.8 96.9,732.3 181.4,736.5 				"/>
			</g>
			<g id="XMLID_273_">
				<polygon id="XMLID_274_" class="st7" points="181.4,736.5 96.9,732.3 223.9,429 318.3,406.6 				"/>
			</g>
			<g id="XMLID_271_">
				<polygon id="XMLID_272_" class="st9" points="617.2,722.8 617.2,849.6 560.2,850.6 560.2,955.6 540.6,956.1 406.9,959.8 
					406.9,853.1 306.1,854.8 181.4,856.9 181.4,736.5 318.3,406.6 479.5,411 356.5,723.9 406.9,723.7 406.9,617.7 518.9,618.5 
					560.2,618.8 560.2,723 				"/>
			</g>
			<g id="XMLID_269_">
				<polygon id="XMLID_270_" class="st0" points="617.2,722.8 617.2,849.6 560.2,850.6 560.2,955.6 540.6,956.1 406.9,959.8 
					406.9,853.1 181.4,856.9 181.4,736.5 318.3,406.6 479.5,411 356.5,723.9 406.9,723.7 406.9,617.7 518.9,618.5 560.2,618.8 
					560.2,723 				"/>
			</g>
		</g>
	</g>
	<linearGradient id="XMLID_5_" gradientUnits="userSpaceOnUse" x1="503.3058" y1="790.8719" x2="657.0865" y2="774.7411">
		<stop  offset="0" style="stop-color:#FFFFFF;stop-opacity:0"/>
		<stop  offset="0.1159" style="stop-color:#C8F7EF;stop-opacity:0.1159"/>
		<stop  offset="0.235" style="stop-color:#97F0E0;stop-opacity:0.235"/>
		<stop  offset="0.3572" style="stop-color:#6CEAD3;stop-opacity:0.3572"/>
		<stop  offset="0.4804" style="stop-color:#4AE5C9;stop-opacity:0.4804"/>
		<stop  offset="0.6051" style="stop-color:#2FE1C1;stop-opacity:0.6051"/>
		<stop  offset="0.7318" style="stop-color:#1CDEBB;stop-opacity:0.7318"/>
		<stop  offset="0.8618" style="stop-color:#11DDB8;stop-opacity:0.8618"/>
		<stop  offset="1" style="stop-color:#0DDCB7"/>
	</linearGradient>
	<path id="XMLID_266_" class="st10" d="M617.2,722.8v126.8l-56.9,1v105l-19.7,0.5c-53.6-145-37.7-270.7-21.6-337.7l41.3,0.3V723
		L617.2,722.8z"/>
	<g id="XMLID_249_">
		<g id="XMLID_250_" class="st5">
			<path id="XMLID_265_" class="st7" d="M836.4,828.9c-0.6,0.1-1.2,0.2-1.8,0.2c-0.1,0-0.2,0-0.4,0c-0.6,0.1-1.3,0.1-1.9,0.1
				c-0.1,0-0.1,0-0.2,0c-0.7,0-1.4,0-2.2,0c-4.4,0-8.5-0.7-12.1-2c0,0,0,0,0,0c-1.8-0.6-3.6-1.5-5.2-2.4c0,0,0,0,0,0
				c-1.7-1-3.2-2.1-4.7-3.5c0,0,0,0,0,0c-1.4-1.2-2.6-2.6-3.9-4.1c-0.3-0.3-0.5-0.7-0.8-1c-1.1-1.5-2.2-3-3.2-4.8
				c-0.1-0.1-0.1-0.2-0.2-0.3c-1-1.8-2-3.9-2.9-6c-0.2-0.5-0.4-1-0.6-1.5c-0.9-2.2-1.7-4.5-2.5-7c-0.1-0.3-0.2-0.6-0.2-0.8
				c-0.7-2.4-1.4-4.9-2-7.6c-0.1-0.6-0.3-1.1-0.4-1.7c-0.6-2.8-1.2-5.8-1.7-9c-0.2-1.2-0.4-2.5-0.6-3.7c-0.4-2.4-0.7-4.8-1-7.3
				c-0.2-1.5-0.4-3-0.5-4.5c-0.3-2.5-0.5-5.1-0.8-7.7c-0.2-2.2-0.4-4.5-0.6-6.8c0-0.6-0.1-1.1-0.1-1.7c-0.3-3.6-0.5-7.3-0.7-11.1
				c0-0.9-0.1-1.7-0.1-2.6c-0.1-2.6-0.2-5.3-0.3-8.1c0-0.7-0.1-1.4-0.1-2.1c-0.1-3.4-0.2-6.9-0.3-10.6c0-0.9,0-1.8,0-2.7
				c-0.1-2.9-0.1-5.9-0.1-8.9c0-1.1,0-2.2,0-3.3c0-3.9-0.1-7.8-0.1-11.9c0-4.6,0-9,0.1-13.3c0-1,0-2,0-3.1c0-4.2,0.1-8.3,0.2-12.3
				c0-0.5,0-1,0-1.5c0.1-3.6,0.2-7.1,0.3-10.5c0-0.8,0.1-1.7,0.1-2.5c0.1-3.7,0.3-7.2,0.5-10.7c0-0.7,0.1-1.4,0.1-2.2
				c0.1-2.3,0.3-4.6,0.5-6.9c0.1-0.9,0.1-1.8,0.2-2.6c0.1-1.3,0.2-2.5,0.3-3.7c0.3-3.4,0.6-6.7,1-9.9c0.1-0.7,0.2-1.5,0.2-2.2
				c0.5-3.8,1-7.4,1.5-10.8c0-0.3,0.1-0.6,0.1-0.9c0.6-3.5,1.2-6.9,2-10c0-0.1,0-0.1,0-0.2c0.7-3.2,1.5-6.2,2.4-9
				c0-0.1,0-0.1,0.1-0.2c0.9-2.8,1.8-5.4,2.8-7.8c0,0,0,0,0,0c1-2.4,2.1-4.6,3.2-6.7c0,0,0-0.1,0.1-0.1c1.2-2,2.4-3.9,3.7-5.5
				c0,0,0,0,0.1-0.1c1.2-1.5,2.5-2.9,3.9-4.1c0.3-0.2,0.5-0.4,0.8-0.7c1.4-1.2,2.7-2.2,4.2-3.1c0,0,0.1,0,0.1-0.1
				c1.2-0.7,2.6-1.3,3.9-1.8c1.4-0.5,2.8-1,4.3-1.3c0.7-0.2,1.3-0.4,2.1-0.5c2.2-0.4,4.5-0.6,7-0.7c0.8,0,1.5,0,2.3,0
				c0.8,0,1.5,0.1,2.2,0.2c0.7,0.1,1.4,0.2,2.2,0.3c0.7,0.1,1.4,0.2,2.1,0.4l-58.2-13c-0.7-0.2-1.5-0.3-2.3-0.4
				c-0.8-0.1-1.5-0.2-2.3-0.3c-0.8-0.1-1.6-0.1-2.4-0.2c-0.8,0-1.6,0-2.5,0c-2.2,0-4.2,0.2-6.2,0.5c-0.4,0.1-0.8,0.1-1.1,0.2
				c-0.3,0.1-0.6,0.1-0.9,0.1c-1.6,0.3-3.1,0.7-4.5,1.2c-0.3,0.1-0.7,0.2-1,0.4c-0.6,0.2-1.2,0.4-1.8,0.7c-1.1,0.5-2.2,1-3.2,1.6
				c0,0-0.1,0-0.1,0.1c-1.1,0.7-2.2,1.4-3.2,2.2c-0.5,0.4-0.9,0.8-1.4,1.2c-0.2,0.1-0.4,0.2-0.5,0.4c-0.1,0.1-0.2,0.2-0.3,0.4
				c-1.2,1.1-2.4,2.3-3.5,3.6c-0.3,0.3-0.5,0.6-0.7,0.9c0,0,0,0.1-0.1,0.1c0,0.1-0.1,0.1-0.1,0.2c-0.3,0.4-0.6,0.8-0.9,1.2
				c-0.3,0.4-0.6,0.9-0.9,1.3c-0.3,0.4-0.6,0.9-0.9,1.4c-0.3,0.5-0.6,0.9-0.8,1.4c-0.1,0.2-0.2,0.4-0.3,0.5c0,0-0.1,0.1-0.1,0.1
				c-0.1,0.2-0.3,0.5-0.4,0.7c-0.3,0.5-0.5,1-0.8,1.5c-0.3,0.5-0.5,1-0.8,1.6c-0.3,0.6-0.6,1.2-0.8,1.8c-0.2,0.6-0.5,1.1-0.7,1.7
				c0,0,0,0,0,0.1c0,0,0,0.1,0,0.1c-0.3,0.6-0.5,1.3-0.8,1.9c-0.3,0.7-0.5,1.3-0.7,2c-0.3,0.8-0.6,1.7-0.9,2.5
				c-0.2,0.6-0.4,1.3-0.6,2c0,0,0,0.1,0,0.1c0,0.1,0,0.1-0.1,0.2c0,0.1-0.1,0.2-0.1,0.3c-0.3,0.9-0.5,1.8-0.8,2.7
				c-0.1,0.4-0.2,0.8-0.3,1.2c-0.1,0.3-0.1,0.5-0.2,0.8c-0.1,0.3-0.2,0.6-0.2,0.9c-0.3,1.1-0.5,2.2-0.8,3.4
				c-0.1,0.2-0.1,0.4-0.2,0.7c0,0,0,0.1,0,0.1c-0.3,1.4-0.6,2.9-0.9,4.4c0,0.2-0.1,0.4-0.1,0.6c-0.1,0.5-0.2,1-0.3,1.5
				c-0.2,0.8-0.3,1.6-0.5,2.5c-0.1,0.5-0.2,0.9-0.2,1.4c-0.1,0.6-0.2,1.3-0.3,1.9c-0.1,0.5-0.2,1-0.2,1.5c-0.1,0.4-0.1,0.9-0.2,1.3
				c-0.3,1.9-0.6,3.9-0.8,6c-0.1,0.5-0.1,0.9-0.2,1.4c0,0.2-0.1,0.5-0.1,0.7c-0.3,2.7-0.6,5.5-0.9,8.4c0,0.1,0,0.2,0,0.3
				c0,0.4-0.1,0.8-0.1,1.3c-0.2,1.8-0.3,3.6-0.5,5.4c-0.1,0.7-0.1,1.4-0.2,2.2c0,0.4-0.1,0.8-0.1,1.3c0,0.5-0.1,1.1-0.1,1.6
				c-0.2,2.4-0.3,4.9-0.5,7.5c0,0.6-0.1,1.1-0.1,1.7c0,0.2,0,0.4,0,0.7c-0.2,3.8-0.4,7.6-0.6,11.7c0,0.4,0,0.7,0,1
				c0,0.5,0,1.1-0.1,1.7c-0.1,3.8-0.3,7.6-0.4,11.6c0,0.4,0,0.7,0,1c0,0.1,0,0.2,0,0.4c-0.1,4.4-0.2,8.9-0.2,13.5c0,0.5,0,1,0,1.5
				c0,0.6,0,1.2,0,1.8c0,4.7-0.1,9.5-0.1,14.5c0,4.5,0,8.8,0.1,13c0,0.5,0,1,0,1.5c0,0.7,0,1.3,0,2c0,3.3,0.1,6.6,0.1,9.7
				c0,0.7,0,1.4,0,2.1c0,0.3,0,0.5,0,0.8c0.1,3.9,0.2,7.8,0.3,11.5c0,0.2,0,0.4,0,0.6c0,0.6,0,1.1,0.1,1.7c0.1,3,0.2,6,0.4,8.8
				c0,0.6,0,1.2,0.1,1.7c0,0.4,0,0.7,0.1,1.1c0.2,4.2,0.5,8.2,0.7,12.1c0,0.2,0,0.5,0,0.7c0,0.4,0.1,0.8,0.1,1.2
				c0.1,1.5,0.2,3.1,0.3,4.6c0.2,2.3,0.4,4.5,0.6,6.7c0,0.1,0,0.3,0,0.4c0,0,0,0.1,0,0.1c0.4,3.7,0.8,7.1,1.2,10.5
				c0,0.4,0.1,0.8,0.1,1.1c0,0.2,0.1,0.4,0.1,0.7c0.4,3.2,0.9,6.3,1.4,9.2c0,0.2,0.1,0.5,0.1,0.7c0.1,0.5,0.2,0.9,0.3,1.4
				c0.3,1.5,0.6,3,0.9,4.5c0.1,0.4,0.2,0.9,0.3,1.3c0.1,0.3,0.1,0.5,0.2,0.8c0.4,1.6,0.7,3.2,1.1,4.7c0.1,0.4,0.2,0.8,0.3,1.1
				c0,0.1,0.1,0.2,0.1,0.3c0.5,1.8,1,3.6,1.5,5.2c0,0.1,0.1,0.1,0.1,0.2c0,0.1,0.1,0.3,0.1,0.4c0.6,1.9,1.2,3.8,1.9,5.6
				c0.2,0.6,0.5,1.1,0.7,1.7c0.2,0.6,0.5,1.1,0.7,1.6c0.3,0.6,0.5,1.2,0.8,1.8c0.7,1.6,1.5,3.2,2.3,4.6c0,0,0.1,0.1,0.1,0.1
				c0.1,0.1,0.1,0.2,0.2,0.3c0.7,1.3,1.5,2.5,2.3,3.6c0.4,0.6,0.8,1,1.2,1.6c0.3,0.4,0.6,0.8,0.9,1.1c0.2,0.3,0.5,0.6,0.7,0.9
				c0.4,0.4,0.8,0.9,1.1,1.3c0.4,0.4,0.8,0.8,1.2,1.2c0.4,0.4,0.8,0.7,1.2,1.1c0,0,0,0,0,0c0,0,0,0,0,0c0,0,0,0,0,0
				c0.4,0.4,0.8,0.7,1.2,1.1c0.3,0.2,0.6,0.5,0.9,0.7c0.3,0.2,0.6,0.4,0.9,0.6c0.3,0.2,0.6,0.4,0.9,0.6c0.3,0.2,0.6,0.4,0.9,0.6
				c0.1,0.1,0.2,0.1,0.3,0.2c0,0,0,0,0.1,0c0.1,0.1,0.3,0.2,0.4,0.2c0.3,0.1,0.5,0.3,0.8,0.4c0.3,0.1,0.5,0.3,0.8,0.4
				c0.3,0.1,0.5,0.3,0.8,0.4c0.3,0.1,0.5,0.2,0.8,0.3c0.3,0.1,0.5,0.2,0.8,0.3c0.3,0.1,0.5,0.2,0.8,0.3c0.2,0.1,0.4,0.2,0.6,0.2
				c0,0,0,0,0,0c0,0,0.1,0,0.1,0.1c0.3,0.1,0.5,0.2,0.8,0.3c0.3,0.1,0.5,0.2,0.8,0.3c0.3,0.1,0.6,0.2,0.8,0.2
				c0.3,0.1,0.6,0.1,0.8,0.2c0.3,0.1,0.6,0.1,0.9,0.2c0.3,0.1,0.6,0.1,0.9,0.2c0.3,0.1,0.6,0.1,0.9,0.2c0.3,0.1,0.6,0.1,1,0.1
				c0.4,0.1,0.8,0.1,1.2,0.1c0.4,0,0.8,0.1,1.2,0.1c0.4,0,0.8,0.1,1.2,0.1c0.4,0,0.8,0,1.2,0.1c0.1,0,0.2,0,0.3,0c0.1,0,0.2,0,0.3,0
				c0.1,0,0.2,0,0.3,0c0.1,0,0.2,0,0.3,0c0.4,0,0.7,0,1.1,0c0.4,0,0.7,0,1,0c0.1,0,0.2,0,0.3,0c0,0,0.1,0,0.1,0c0,0,0.1,0,0.1,0
				c0.2,0,0.4,0,0.6,0c0.3,0,0.7,0,1-0.1c0.2,0,0.3,0,0.5,0c0.1,0,0.1,0,0.2,0c0.1,0,0.1,0,0.2,0c0.2,0,0.3,0,0.5,0
				c0.4-0.1,0.9-0.1,1.3-0.2c0.1,0,0.1,0,0.2,0c0,0,0.1,0,0.1,0c0.1,0,0.1,0,0.2,0c0.3,0,0.5-0.1,0.8-0.1c0.4-0.1,0.9-0.2,1.3-0.3
				l58.2-13c-0.6,0.1-1.2,0.3-1.9,0.4C836.6,828.9,836.5,828.9,836.4,828.9z"/>
			<g id="XMLID_261_" class="st5">
				<linearGradient id="XMLID_6_" gradientUnits="userSpaceOnUse" x1="990.7578" y1="686.4178" x2="1032.8245" y2="686.4178">
					<stop  offset="0" style="stop-color:#E6E7E8"/>
					<stop  offset="1" style="stop-color:#939598"/>
				</linearGradient>
				<path id="XMLID_264_" class="st11" d="M991,654.9l41.2,2.5c0.1,2.2,0.2,4.4,0.3,6.6c0.1,2.2,0.2,4.5,0.2,6.7
					c0.1,2.2,0.1,4.5,0.1,6.8c0,2.3,0,4.6,0,6.9c0,2.6,0,5.2-0.1,7.8c0,2.6-0.1,5.2-0.2,7.7c-0.1,2.6-0.2,5.1-0.3,7.6
					c-0.1,2.5-0.2,5-0.4,7.5l-41.2,2.8c0.2-2.7,0.3-5.4,0.4-8.2c0.1-2.8,0.2-5.5,0.3-8.3c0.1-2.8,0.1-5.6,0.2-8.4
					c0-2.8,0.1-5.7,0.1-8.6c0-2.5,0-5,0-7.5c0-2.5-0.1-5-0.1-7.4c-0.1-2.5-0.1-4.9-0.2-7.3C991.2,659.7,991.1,657.3,991,654.9"/>
				<linearGradient id="XMLID_7_" gradientUnits="userSpaceOnUse" x1="985.7578" y1="740.1017" x2="1031.962" y2="740.1017">
					<stop  offset="0" style="stop-color:#E6E7E8"/>
					<stop  offset="1" style="stop-color:#939598"/>
				</linearGradient>
				<path id="XMLID_263_" class="st12" d="M990.8,717.9l41.2-2.8c-0.2,3.8-0.5,7.5-0.8,11.2c-0.3,3.7-0.6,7.3-1,11
					c-0.4,3.6-0.8,7.2-1.3,10.7c-0.5,3.5-1,7-1.5,10.4l-41.6,6.7c0.6-3.7,1.1-7.5,1.6-11.4c0.5-3.8,1-7.7,1.4-11.7
					c0.4-3.9,0.8-7.9,1.1-12C990.2,726.1,990.5,722,990.8,717.9"/>
				<path id="XMLID_262_" class="st7" d="M1032.8,684.4c0-9.2-0.3-18.2-0.7-27l0.1,0c-0.2-4.8-0.6-9.6-0.9-14.3
					c-0.1-0.9-0.2-1.7-0.2-2.6c-0.1-1.3-0.3-2.7-0.4-4c-0.2-2.4-0.4-4.9-0.7-7.2c-0.4-3.2-0.8-6.3-1.2-9.4c-0.1-0.9-0.2-1.8-0.4-2.8
					c-0.1-0.4-0.1-0.8-0.2-1.2c-0.6-4.4-1.3-8.7-2.1-13c-0.2-1-0.4-2-0.6-3c-0.1-0.7-0.2-1.4-0.4-2.1c-0.2-1.2-0.5-2.2-0.8-3.4
					c-0.4-2.1-0.8-4.3-1.3-6.4c-0.5-2-1-4-1.5-6c-0.4-1.8-0.9-3.6-1.3-5.3c-0.3-1-0.5-2-0.8-3c-1-3.8-2.2-7.5-3.3-11.1
					c-0.2-0.7-0.4-1.4-0.6-2.1c0-0.1-0.1-0.3-0.1-0.4c-1.5-4.5-3-8.8-4.7-13c-0.2-0.5-0.4-0.9-0.6-1.4c-1.4-3.6-3-7-4.5-10.5
					c-0.8-1.7-1.5-3.6-2.3-5.3c-0.1-0.3-0.3-0.5-0.4-0.8c-0.1-0.3-0.3-0.6-0.4-0.9c-1.8-3.7-3.8-7.2-5.8-10.7
					c-0.6-1.1-1.2-2.4-1.8-3.5c0-0.1-0.1-0.2-0.2-0.2c-2.9-4.9-5.9-9.6-9.2-14.1c-0.1-0.1-0.1-0.2-0.2-0.3c-0.8-1.1-1.6-2-2.4-3.1
					c-2.4-3.3-4.9-6.5-7.5-9.6c-0.2-0.2-0.4-0.5-0.5-0.7c-1.8-2.1-3.6-4.1-5.5-6.1c-1-1-2-2-3.1-3c-0.3-0.3-0.5-0.6-0.8-0.8
					c-0.2-0.2-0.4-0.3-0.6-0.5c-0.4-0.4-0.9-0.9-1.3-1.3c-2-1.9-4-3.7-6-5.4c-0.9-0.7-1.8-1.4-2.6-2.2c-0.5-0.4-1.1-0.9-1.6-1.3
					c-0.7-0.5-1.3-1.1-2-1.6c-1.4-1.1-2.8-2.2-4.3-3.2c-1.4-1-2.9-2.1-4.4-3.1c-0.2-0.1-0.4-0.3-0.7-0.4c-0.2-0.1-0.3-0.2-0.5-0.3
					c-1.1-0.7-2.2-1.5-3.3-2.2c-1.5-0.9-3-1.9-4.6-2.8c-1.3-0.8-2.7-1.5-4-2.3c-0.2-0.1-0.5-0.2-0.7-0.4c-0.1-0.1-0.3-0.1-0.4-0.2
					c-1-0.5-2-1.1-3-1.6c-1.4-0.7-2.8-1.4-4.2-2.1c-1.4-0.7-2.8-1.3-4.2-1.9c-0.2-0.1-0.4-0.2-0.6-0.2c-0.2-0.1-0.4-0.2-0.6-0.2
					c-0.2-0.1-0.4-0.2-0.6-0.2c-0.2-0.1-0.4-0.2-0.6-0.2c-17.2-7.3-34.3-14.6-51.5-22c5.1,2.2,10,4.5,14.8,7.1
					c0.2,0.1,0.3,0.2,0.5,0.2c4.7,2.5,9.2,5.3,13.7,8.2c0.2,0.1,0.4,0.2,0.6,0.4c4.2,2.8,8.3,5.8,12.2,9c0.6,0.5,1.2,1,1.8,1.4
					c3.7,3.1,7.3,6.3,10.8,9.7c0.5,0.5,1,1,1.5,1.5c3.4,3.4,6.7,7,9.9,10.7c2.9,3.3,5.5,6.9,8.2,10.4c0.9,1.2,1.9,2.4,2.8,3.6
					c3.5,4.9,6.8,10,10,15.4c0.8,1.3,1.4,2.7,2.1,4c2.3,4.2,4.6,8.3,6.8,12.8c1,2.1,2,4.4,3,6.6c1.7,3.7,3.4,7.5,4.9,11.4
					c2.1,5.3,4.1,10.7,5.9,16.3c0.2,0.7,0.4,1.5,0.7,2.3c1.6,5,3.1,10.2,4.5,15.5c0.5,1.9,1,3.9,1.4,5.8c1.1,4.4,2.1,8.9,3,13.5
					c0.4,2,0.8,4,1.2,6c1.2,6.1,2.2,12.4,3.1,18.8c0.1,1,0.2,2,0.4,3c0.8,5.9,1.5,12,2.1,18.2c0.1,1.5,0.3,2.9,0.4,4.4
					c1.3,15.3,2,31.2,2,47.9c0,34.1-2.8,65.3-8.2,93.6c-0.1,0.6-0.2,1.3-0.4,1.9c-1.3,6.6-2.7,13-4.3,19.2c-0.1,0.3-0.2,0.7-0.2,1
					c-1.6,6.4-3.4,12.6-5.4,18.6c-0.1,0.5-0.3,0.9-0.4,1.4c-2,6-4.1,11.8-6.3,17.5c-0.1,0.3-0.2,0.5-0.3,0.8
					c-2.3,5.8-4.8,11.4-7.5,16.8c0,0,0,0,0,0c-2.6,5.4-5.4,10.6-8.4,15.6c-0.1,0.2-0.3,0.5-0.4,0.7c-2.9,4.9-5.9,9.5-9.1,14
					c-0.3,0.4-0.5,0.8-0.8,1.1c-3.1,4.3-6.3,8.5-9.6,12.4c-0.2,0.3-0.5,0.6-0.7,0.8c-3.2,3.8-6.6,7.4-10.1,10.9
					c-0.7,0.7-1.5,1.5-2.2,2.2c-3.5,3.4-7.1,6.7-10.9,9.7c-0.4,0.3-0.8,0.6-1.2,1c-3.6,2.9-7.2,5.5-11,8.1c-0.7,0.5-1.4,1-2.2,1.5
					c-4,2.6-8.1,5.1-12.3,7.4c-0.9,0.5-1.8,0.9-2.7,1.4c-4.4,2.3-8.9,4.5-13.5,6.5l51.5-22c4.3-1.8,8.4-3.8,12.4-6
					c0.8-0.4,1.6-0.9,2.4-1.3c0.7-0.4,1.4-0.7,2-1.1c3.2-1.8,6.3-3.7,9.3-5.7c0.7-0.4,1.3-0.9,2-1.4c1.5-1,2.9-2,4.4-3
					c1.9-1.4,3.8-2.9,5.7-4.4c0.4-0.3,0.8-0.6,1.2-0.9c2.6-2.1,5.1-4.3,7.6-6.5c0.8-0.8,1.6-1.6,2.4-2.4c0.4-0.3,0.7-0.6,1.1-1
					c0.3-0.3,0.6-0.7,1-1c3-3,5.9-6,8.6-9.2c0.2-0.3,0.4-0.5,0.7-0.8c0.2-0.2,0.4-0.5,0.6-0.8c1-1.1,1.9-2.2,2.8-3.4
					c1.4-1.7,2.7-3.4,4-5.2c0.7-0.9,1.4-1.9,2.1-2.9c0.2-0.3,0.5-0.7,0.7-1c0.3-0.5,0.7-1,1.1-1.5c1.3-1.8,2.5-3.7,3.7-5.6
					c1.1-1.6,2.1-3.3,3.1-5c0.2-0.3,0.3-0.6,0.5-0.8c0.1-0.2,0.3-0.4,0.4-0.7c0.7-1.2,1.4-2.4,2.1-3.6c1-1.7,1.9-3.5,2.9-5.3
					c0.9-1.8,1.8-3.6,2.7-5.4c0,0,0,0,0,0c0,0,0,0,0,0c0,0,0,0,0,0c0.9-1.8,1.8-3.7,2.6-5.5c0.9-1.9,1.7-3.7,2.5-5.7
					c0.6-1.4,1.2-2.8,1.7-4.2c0.1-0.2,0.2-0.5,0.3-0.7c0.1-0.3,0.2-0.6,0.4-0.9c0.8-2,1.5-3.9,2.3-5.9c0.8-2.1,1.5-4.3,2.3-6.4
					c0.3-0.9,0.6-1.8,0.9-2.7c0.1-0.4,0.3-0.8,0.4-1.3c0.3-0.9,0.6-1.7,0.8-2.6c0.7-2.2,1.4-4.5,2-6.8c0.7-2.3,1.3-4.6,1.9-6.9
					c0.1-0.3,0.1-0.5,0.2-0.8c0.1-0.3,0.1-0.6,0.2-0.9c0.5-2.1,1.1-4.1,1.5-6.3c0.6-2.7,1.2-5.4,1.8-8.1c0.2-1.1,0.4-2.2,0.6-3.2
					c0.1-0.3,0.1-0.6,0.2-0.9s0.1-0.6,0.2-0.9c0.2-1.1,0.4-2.2,0.6-3.3c0.5-2.8,1-5.6,1.5-8.5l-0.1,0
					C1030.9,735.6,1032.8,711,1032.8,684.4z"/>
			</g>
			<g id="XMLID_256_">
				<path id="XMLID_257_" class="st9" d="M982.8,587.5c-1.7-8.5-3.6-16.7-5.8-24.6c-9.7-35.1-24.1-64.7-43-88.5
					c-18.8-23.7-42-41.7-69.4-53.6c-27.2-11.8-58.6-17.6-93.7-17.1c-35.4,0.6-66.6,7.3-93.5,19.8c-26.8,12.5-49.4,30.8-67.6,54.6
					c-18.1,23.8-31.9,53-41.2,87.5c-9.2,34.5-13.9,74.1-13.9,118.8c0,44.7,4.7,84.4,13.9,118.9c9.2,34.5,23,63.7,41.2,87.5
					c18.2,23.8,40.8,42.1,67.6,54.6c26.9,12.5,58.1,19.2,93.5,19.8c15.7,0.3,30.7-0.8,44.8-3.1c17.5-2.8,33.8-7.5,48.8-14
					c27.4-11.9,50.6-29.8,69.4-53.6c18.8-23.8,33.3-53.4,43-88.5c9.7-35.2,14.7-75.8,14.7-121.6C991.7,649,988.7,616.6,982.8,587.5z
					 M809.9,807c-3.9,12.5-8.8,21.4-15.3,27.2c-6.4,5.7-14.2,8.3-23.6,8.3c-9.6-0.1-17.6-2.8-24.1-8.6c-6.5-5.9-11.5-14.8-15.4-27.3
					c-3.8-12.6-6.5-28.6-8.1-48.8c-1.7-20.2-2.4-44.5-2.4-73.3c0-29,0.7-53.4,2.4-73.6c1.7-20.2,4.3-36.3,8.1-48.8
					c3.9-12.5,8.9-21.4,15.4-27.1c6.5-5.8,14.5-8.5,24.1-8.5c9.4-0.1,17.2,2.5,23.6,8.1c6.5,5.7,11.4,14.5,15.3,27
					c3.8,12.5,6.5,28.6,8.1,48.9c1.7,20.3,2.4,44.8,2.4,73.9c0,29-0.7,53.4-2.4,73.7C816.3,778.3,813.7,794.5,809.9,807z"/>
			</g>
			<g id="XMLID_251_">
				<path id="XMLID_252_" class="st0" d="M982.8,587.5c-1.7-8.5-3.6-16.7-5.8-24.6c-9.7-35.1-24.1-64.7-43-88.5
					c-18.8-23.7-42-41.7-69.4-53.6c-27.2-11.8-58.6-17.6-93.7-17.1c-35.4,0.6-66.6,7.3-93.5,19.8c-26.8,12.5-49.4,30.8-67.6,54.6
					c-18.1,23.8-31.9,53-41.2,87.5c-9.2,34.5-13.9,74.1-13.9,118.8c0,44.7,4.7,84.4,13.9,118.9c9.2,34.5,23,63.7,41.2,87.5
					c18.2,23.8,40.8,42.1,67.6,54.6c26.9,12.5,58.1,19.2,93.5,19.8c15.7,0.3,30.7-0.8,44.8-3.1c17.5-2.8,33.8-7.5,48.8-14
					c27.4-11.9,50.6-29.8,69.4-53.6c18.8-23.8,33.3-53.4,43-88.5c9.7-35.2,14.7-75.8,14.7-121.6C991.7,649,988.7,616.6,982.8,587.5z
					 M809.9,807c-3.9,12.5-8.8,21.4-15.3,27.2c-6.4,5.7-14.2,8.3-23.6,8.3c-9.6-0.1-17.6-2.8-24.1-8.6c-6.5-5.9-11.5-14.8-15.4-27.3
					c-3.8-12.6-6.5-28.6-8.1-48.8c-1.7-20.2-2.4-44.5-2.4-73.3c0-29,0.7-53.4,2.4-73.6c1.7-20.2,4.3-36.3,8.1-48.8
					c3.9-12.5,8.9-21.4,15.4-27.1c6.5-5.8,14.5-8.5,24.1-8.5c9.4-0.1,17.2,2.5,23.6,8.1c6.5,5.7,11.4,14.5,15.3,27
					c3.8,12.5,6.5,28.6,8.1,48.9c1.7,20.3,2.4,44.8,2.4,73.9c0,29-0.7,53.4-2.4,73.7C816.3,778.3,813.7,794.5,809.9,807z"/>
			</g>
		</g>
	</g>
	<linearGradient id="XMLID_8_" gradientUnits="userSpaceOnUse" x1="916.4788" y1="783.1713" x2="1142.3104" y2="893.6673">
		<stop  offset="0" style="stop-color:#FFFFFF;stop-opacity:0"/>
		<stop  offset="3.255892e-02" style="stop-color:#E1FBF6;stop-opacity:3.255892e-02"/>
		<stop  offset="8.718014e-02" style="stop-color:#B5F4E9;stop-opacity:8.718014e-02"/>
		<stop  offset="0.1475" style="stop-color:#8DEEDD;stop-opacity:0.1475"/>
		<stop  offset="0.2122" style="stop-color:#6AE9D3;stop-opacity:0.2122"/>
		<stop  offset="0.2826" style="stop-color:#4DE5CA;stop-opacity:0.2826"/>
		<stop  offset="0.3603" style="stop-color:#35E2C3;stop-opacity:0.3603"/>
		<stop  offset="0.4488" style="stop-color:#23DFBE;stop-opacity:0.4488"/>
		<stop  offset="0.5543" style="stop-color:#16DDBA;stop-opacity:0.5543"/>
		<stop  offset="0.6936" style="stop-color:#0FDCB8;stop-opacity:0.6936"/>
		<stop  offset="1" style="stop-color:#0DDCB7"/>
	</linearGradient>
	<path id="XMLID_248_" class="st13" d="M991.7,684.4c0,45.8-5,86.4-14.7,121.6c-9.7,35.1-24.1,64.7-43,88.5
		c-18.8,23.7-42,41.7-69.4,53.6c-15,6.5-31.4,11.2-48.8,14l167-374.5C988.7,616.6,991.7,649,991.7,684.4z"/>
	<g id="XMLID_229_">
		<g id="XMLID_230_" class="st5">
			<g id="XMLID_246_">
				<polygon id="XMLID_247_" class="st7" points="1127.1,736.5 1195.2,733.3 1243.1,733.4 1179.1,736.6 				"/>
			</g>
			<g id="XMLID_244_">
				<polygon id="XMLID_245_" class="st7" points="1255.5,420.1 1313.4,443.1 1195.2,733.3 1127.1,736.5 				"/>
			</g>
			<g id="XMLID_242_">
				<polygon id="XMLID_243_" class="st7" points="1393.7,853.8 1393.7,952.8 1342.7,976 1342.7,868.1 				"/>
			</g>
			<g id="XMLID_240_">
				<polygon id="XMLID_241_" class="st7" points="1342.7,629.8 1393.7,635.5 1393.7,733.7 1342.7,737 				"/>
			</g>
			<g id="XMLID_237_">
				<polygon id="XMLID_238_" class="st7" points="1405.6,737.2 1451.5,733.8 1451.5,854.4 1405.6,868.7 				"/>
			</g>
			<g id="XMLID_235_">
				<polygon id="XMLID_236_" class="st7" points="1342.7,737 1393.7,733.7 1451.5,733.8 1405.6,737.2 				"/>
			</g>
			<g id="XMLID_233_">
				<polygon id="XMLID_234_" class="st9" points="1405.6,737.2 1405.6,868.7 1393.7,868.6 1342.7,868.1 1342.7,976 1179.1,973.2 
					1179.1,866.4 952.7,864.1 952.7,747.7 1088.3,422.9 1255.5,420.1 1127.1,736.5 1179.1,736.6 1179.1,630.5 1342.7,629.9 
					1342.7,737 				"/>
			</g>
			<g id="XMLID_231_">
				<polygon id="XMLID_232_" class="st0" points="1255.5,420.1 1127.1,736.5 1179.1,736.6 1179.1,630.5 1342.7,629.8 1342.7,737 
					1405.6,737.2 1405.6,868.7 1342.7,868.1 1342.7,976 1179.1,973.3 1179.1,866.4 952.8,864.1 952.8,747.7 1088.3,422.9 				"/>
			</g>
		</g>
	</g>
	<polygon id="XMLID_228_" class="st7" points="406.9,853.1 406.9,853.4 306.1,922.8 306.1,854.8 	"/>
	<polygon id="XMLID_227_" class="st7" points="1393.7,869.5 1393.7,931.6 1343.5,868.9 	"/>
	<g>
		<g>
			<circle class="st0" cx="718.5" cy="611.5" r="89.1"/>
			<path class="st14" d="M833.5,686.7l-22.9-18.7c10.1-16.5,16-35.8,16-56.5c0-59.6-48.5-108.1-108.1-108.1
				c-59.6,0-108.1,48.5-108.1,108.1c0,59.6,48.5,108.1,108.1,108.1c32.1,0,60.9-14.1,80.7-36.3l22.3,18.1L833.5,686.7z M718.5,700.6
				c-49.1,0-89.1-40-89.1-89.1s40-89.1,89.1-89.1s89.1,40,89.1,89.1S767.7,700.6,718.5,700.6z"/>
		</g>
		<path class="st15" d="M909,739.9l-74.7-57.2c-5.5-4.2-13.3-3.1-17.5,2.3c-4.2,5.5-3.1,13.3,2.3,17.5l74.7,57.2
			c2.3,1.7,4.9,2.6,7.6,2.6c3.8,0,7.5-1.7,9.9-4.9C915.5,752,914.5,744.1,909,739.9z"/>
		<circle class="st3" cx="733.9" cy="553" r="18.7"/>
		<circle class="st3" cx="777" cy="579.3" r="10.9"/>
	</g>
	<g>
		<g>
			<path class="st16" d="M893.2,758.4l-4.2-3.6c-0.9-0.5-2.3-2.3-3-2.9c-5.5-4.5-8.2-11.7-13.5-16.6c0.8,2.5,1.6,5,2.4,7.5
				c-1.2,1-3,0.3-4.3-0.6c-3.4-2.5-6.1-6-7.5-10c-0.1,5.1,1.8,10.3,5.3,14c2.4,2.6,5.6,4.6,8.6,6.6c3.7,2.5,9.4,6,12.8,8.9
				L893.2,758.4z"/>
		</g>
		<g>
			<g>
				<path id="Shape_4_" class="st16" d="M946.8,693.7c-0.7-4.3-3-8.8,1.6-11.9c2.1-1.2,4.5-1.6,6.8-1.4c5.7,0.2,11.7,1.8,15.6,6
					c1.4,1.6,2.6,3.4,3.5,5.3c0.8,1.6,1.8,2.8,2.7,4.3c2.2,3.8,1.8,8.5-1,11.9c-1.5,1.3-2.9,2.7-4.1,4.3c-2,3.3-1,7.5,0.1,11.2
					c-2.9,1.8-6.1,2.9-9.5,3.4c-0.1-3.6-1.7-7.1-4.3-9.6c-2-1.7-4.7-2.4-6.6-4.2c-1.8-1.9-3-4.3-3.4-6.8c-0.1-0.9-0.4-1.8-0.8-2.7
					c-0.7-0.9-1.6-1.2-1.8-2.3c0.1-1.2,0.8-3,1.1-4.2C947,695.8,947,694.7,946.8,693.7z"/>
				<path id="Shape_3_" class="st14" d="M977.6,674.5c-1.7-7,5.5-14.8,12.6-16.6c7-1.7,14.5,1.2,20,5.9c5.5,4.7,9.4,10.9,13.2,17.1
					l9.6,15.5c2.1,3.7,4.6,7.2,7.6,10.2c7.1,6.8,17.4,9,26.7,6c-7.7,6.4-18.2,8.3-27.5,4.8c-7.5-2.9-13.4-9-18.6-15.2
					c-5.2-6.2-10.1-12.8-16.8-17.4c-6.7-4.6-19.3-12.2-20.8-4.2C982.7,680.1,978.1,676.5,977.6,674.5"/>
				<path id="Shape_2_" class="st14" d="M985.8,684.5c3.7,5.3,3.8,12.3,0.3,17.7c-1.2,2.7-2.9,5.7-5.8,5.9c-0.7-3.9-2-7.6-3.9-11.1
					c-0.5-1.3-1.6-2.3-2.9-2.7c-1.2,0-2.4,0.3-3.4,1.1c-5.1,2.8-10.8-5-16.6-5.9c-2.4-0.3-4.7-1.2-6.7-2.4c-2.7-2.1-1.4,1.2-2.4,0.1
					c-1.1-1.3-0.3-3.6,0.6-5c0.9-1.4,3.6-0.9,4.3-2.5c3.4-8.1,7.2-7.3,12.1-8.5c4.1-1,11.8,3,14.7,6.1"/>
				<path id="Shape_1_" class="st17" d="M982,679.1c1.3,0.6,2.3,1.5,3.1,2.7c0.2,0.5,0.2,1.2,0,1.7s-0.8,0.9-1.4,1
					c-1.3,0.2-2.7-0.3-3.5-1.4l-6.2-5.8c-0.5-0.4-0.9-1-1-1.6c0.1-0.5,0.3-0.9,0.7-1.2c2.4-2,4.3-1.3,5.3,1.7
					C980.1,677,981.1,678,982,679.1"/>
				<g>
					<path class="st18" d="M951.6,696.8c-0.2,0.5-1-0.2-0.8-0.6c0.3-0.4,1-0.4,1.5-0.3c0,0.3,0,0.5-0.2,0.6
						c-0.3,0.1-0.3-0.4-0.1-0.3"/>
				</g>
				<g>
					<path class="st18" d="M949.4,692.7c2.1-0.3,4.7-0.1,5.5,1.3"/>
				</g>
				<g>
					<path class="st19" d="M948.6,709.3c0.8,0.1,1.9-0.4,2.6-1.1c0.6-0.6,0.8-0.8,1.1-1.6c-1.3,0.9-2.2,0.5-3.6,0.5"/>
				</g>
				<g class="st20">
					<path class="st14" d="M958.4,717.1c0.3,0.7,1,1,1.5,1.7c1.2,1.8,1.3,2.6,2.7,3.7c0.2-1.3,1.6-2.9,1.7-4.2
						c0.2-0.8,0.2-1.7-0.1-2.5c0-0.1-0.1-0.2-0.2-0.2c-0.1-0.1-0.3-0.1-0.5-0.1c-0.8,0.1-1.5,0.7-2.3,0.8c-0.3,0.1-0.8,0-1.1-0.1
						c-0.8-0.1-2,0.4-2.7,0.2"/>
				</g>
			</g>
			<g>
				<path class="st16" d="M1053.2,939.2c-0.4,0.3-0.9,0.5-1.3,0.6c-0.7,0.1-1.2-0.3-1.9-0.5c-4.5-2.4-14.6-10.1-4.6-14.4
					c4.2-1.8,8.2,1.8,10.8,4.9C1059.9,934,1058,936,1053.2,939.2z"/>
			</g>
			<g>
				<path class="st16" d="M975,960.3c-3.4,1.5-7,2.7-10.7,3.7c-0.3,0.1-0.6,0.2-0.9,0c-0.2-0.1-0.3-0.3-0.4-0.6
					c-1-2.5-3.8-7.2-2.2-9.4c1.4-2.1,7.8-3.9,10.2-3C973.1,951.9,977.3,959.4,975,960.3z"/>
			</g>
			<g>
				<path class="st21" d="M979.2,718.4c-0.8,2-1.1,4.2-1.1,6.3c-8.2-0.3-17.3,0.8-25.2,2.5c0.2-1.7,1.5-4.6,2.5-6
					c0.1-0.2,0.2-0.3,0.4-0.4c0.3-0.1,0.6-0.1,0.9-0.1c7.6,0.5,13.8-0.5,20.9-3.1"/>
			</g>
			<g>
				<g>
					<g>
						<path class="st22" d="M1015.4,766.4c-1.3-7.1-5.4-13.4-8.9-19.8c-3.3-6-6.1-12.2-9-18.4l0,0c-0.2-0.4-0.6-0.6-1.3-0.9
							c-7.5-1.9-15.3-2.9-23.2-2.9c-6.8,0-13.7,0.9-20.4,2c-3.5,0.6-7,0.9-9.5,3c0-0.1-0.1-0.1-0.1-0.2v0.2c-3,2.7-5.1,6-7.2,9.4
							c-4.1,6.6-8.3,13.1-12.4,19.7c-1.4,2.2-2.8,4.4-3.8,6.7c-1.7,3.9-2.5,8.1-4.5,11.9c-7.9-6.5-14.7-14.2-19.9-22.6
							c-5.3,4.8-10.6,9.4-16.2,14c5.7,3.1,11.7,6.2,16.2,10.6c2.5,2.4,4.5,5.3,7,7.9c2.5,2.5,5.6,4.8,9.2,5.5
							c0.6,0.1,1.1,0.2,1.7,0.1c0.8-0.2,3.7-0.8,4.1-1.3c8.7-8.9,17.7-17.6,26.9-26.1c1.2,7.3,2.5,14.5,3.7,21.9
							c0.1,0.4,0.2,0.9,0.5,1.2c0.4,0.3,1,0.4,1.4,0.5c11.9,2.1,24.2,2.5,36.3,1.2c1.2,2.7,2.5,7.1,3.7,9.2
							c9.5-7.1,17.8-15.3,24.7-24.4c0.6-0.8,0.9-4.8,1.1-5.7C1015.7,768.2,1015.6,767.2,1015.4,766.4z M1000.9,773.6
							c-0.4,0.7-1.1,1.3-1.6,1.9c-2.2,2.2-4.5,4.3-6.8,6.4c0.5-2.5,0.8-5,1.7-7.5c1.6-4.4,1.9-7.9,2.7-12.4c0.6,2.5,2.9,3.9,3.7,6.3
							C1001.2,770.1,1001.7,772,1000.9,773.6z"/>
					</g>
				</g>
			</g>
			<g>
				<path class="st21" d="M990.4,788c-0.2,1.2-0.4,2.5-0.6,3.8c-0.1,0.4-0.1,0.9-0.4,1.1c-0.3,0.3-0.9,0.4-1.3,0.5
					c-4,0.8-8.1,0.8-12.3,0.9c-5.5,0-10.9,0.1-16.4,0.1c-3.3,0-6.6,0.1-9.9-0.3c-0.4,0-0.9-0.1-1.1-0.3c-0.3-0.3-0.3-0.7-0.4-1
					c-0.1-1.3-0.1-2.6,0.1-3.8c0-0.4,0.1-0.9,0.5-1.2c0.3-0.3,0.7-0.3,1.1-0.4c11-1.8,22.3-1,33.5-0.2c2.5,0.2,5,0.3,7.4,1"/>
			</g>
			<g>
				<path class="st17" d="M991.6,798.9c-4.6,7.9-9.2,15.6-13.8,23.5c-2.8,4.8-5.6,9.6-7.1,14.9c-1.4,5.2-1.3,11.1,1.4,15.9l0.1-0.7
					c0.8,9.7,6.9,18.4,13,26.4c4,5.3,8.1,10.7,12.3,15.9c12,14.9,25.2,30.1,43.6,37.7c3.1-2.2,6.1-4.5,9.2-6.6
					c-3.3-7.2-8.9-13.4-14.5-19.3c-10.6-11.3-21.7-22.2-33.3-32.7c-0.6-0.5-1.1-1-1.4-1.8c-0.3-0.7-0.1-1.5,0.1-2.2
					c3.1-16.8-5-33.6-6.9-50.5c-0.8-7-0.6-14.2-3.7-20.6"/>
			</g>
			<g>
				<path class="st23" d="M991.6,798.9c-4.6,7.9-9.2,15.6-13.8,23.5c-2.8,4.8-5.6,9.6-7.1,14.9c-1.4,5.2-1.3,11.1,1.4,15.9l0.1-0.7
					c0.8,9.7,6.9,18.4,13,26.4c4,5.3,8.1,10.7,12.3,15.9c12,14.9,25.2,30.1,43.6,37.7c3.1-2.2,6.1-4.5,9.2-6.6
					c-3.3-7.2-8.9-13.4-14.5-19.3c-10.6-11.3-21.7-22.2-33.3-32.7c-0.6-0.5-1.1-1-1.4-1.8c-0.3-0.7-0.1-1.5,0.1-2.2
					c3.1-16.8-5-33.6-6.9-50.5c-0.8-7-0.6-14.2-3.7-20.6"/>
			</g>
			<g class="st20">
				<path class="st14" d="M991.6,798.9c-4.6,7.9-9.2,15.6-13.8,23.5c-2.8,4.8-5.6,9.6-7.1,14.9c-1.4,5.2-1.3,11.1,1.4,15.9l0.1-0.7
					c0.8,9.7,6.9,18.4,13,26.4c4,5.3,8.1,10.7,12.3,15.9c12,14.9,25.2,30.1,43.6,37.7c3.1-2.2,6.1-4.5,9.2-6.6
					c-3.3-7.2-8.9-13.4-14.5-19.3c-10.6-11.3-21.7-22.2-33.3-32.7c-0.6-0.5-1.1-1-1.4-1.8c-0.3-0.7-0.1-1.5,0.1-2.2
					c3.1-16.8-5-33.6-6.9-50.5c-0.8-7-0.6-14.2-3.7-20.6"/>
			</g>
			<g>
				<path class="st23" d="M990.3,797c-1.3-0.3-0.1-2.6-1.3-3.2c-0.3-0.1-0.6-0.1-0.9-0.1c-12.5,0-25,0.1-37.5,0.1l-0.2-0.8
					c0.3,6.9-2.2,13.6-2.9,20.5c-0.6,5.8,0.1,11.7-1.7,17.2l0.1-1c-2,16.6-4.1,33.2-6.1,49.8c-0.5,4.2-1.1,8.3-0.7,12.5
					c0.4,4.1,1.6,8.1,2.9,12.1c4.2,13.5,8.4,27.2,12.6,40.7c1.4,4.5,3,9.4,6.6,12.8c3.5-1,7-2,10.5-3.1c0.5-0.2,1.1-0.3,1.4-0.7
					c0.4-0.4,0.5-1,0.6-1.7c1.4-20.8-6.5-42.6-17.9-59.6c-0.7-1-1.1-2.3-1.1-3.4c0.1-1.7,6.1-12,7-13.5c9-17.3,11.1-20.8,14.1-37.2
					c0.4-2.3,0.9-4.6,2.1-6.6c1-1.6,2.4-2.8,3.6-4.1c4.5-4.5,8-10,9.6-16c1.5-5.9,1-12.5-2.3-17.8"/>
			</g>
			<g>
				<path class="st24" d="M1057,930.1c-0.7-0.3,4.1,3.2,7.5,4.8c-3.7,3.4-7.5,6.7-11.2,10.2c-1.4,1.3-2.9,2.6-4.4,3.9
					c-3.9,3.2-8.2,5.9-11.1,9.7c-1.5-0.1-2.5-1.6-2.7-2.9c-0.3-1.9,0.3-3.9,1-5.7c1.5-4.3,3.1-8.7,6.7-11.9c2-1.8,4.5-3.2,6.9-4.5
					c2.1-1.2,4.3-2.3,6.3-3.4c0.2-0.1,0.5-0.2,0.6-0.1c0.2,0.1-0.2,0.4-0.2,0.2"/>
			</g>
			<g>
				<path class="st24" d="M974.9,958.4c-0.1,0.3-0.3,0.7-0.5,1.1c-7,0.5-14,1.2-20.2,4.1c-3.4,1.6-6.5,4-8.9,6.8
					c-0.8,1-1.5,2-1.4,3.2c2-0.1,4-0.4,6.1-0.6c10.4-1.3,20.9-2.7,31-4.9c-0.1-2.6-0.8-5.1-2.1-7.5c-0.3-0.6-0.7-1.1-1.2-1.5"/>
			</g>
			<g class="st20">
				<path class="st14" d="M950.1,794.9c0,2.6,0,5.2,0,7.9c0,0.3,0,0.8,0.2,1c0.6,0.9,2,0.5,3,0c10.5-5,21.9-8.3,33.6-9.9
					c-12.3-0.2-24.5-0.1-36.8,0.1"/>
			</g>
			<g class="st25">
				<path class="st14" d="M944,762.5c4-2.5,6.2-7.2,5.7-11.5c1.8,8.5,4.2,16.8,7,25c0.5,1.5,1.1,3.1,0.8,4.5
					c-0.3,1.5-1.5,3.1-3.3,3.1c-1.5,0.1-2.8-1-3.4-2.3c-0.7-1.2-0.6-1-1.2-2.3c-2.3-4.5-2-9.3-4.1-12.9"/>
			</g>
			<g class="st26">
				<g>
					<path class="st27" d="M953.3,892.7c0.8,0,0.8-1.1,0-1.1C952.6,891.5,952.6,892.7,953.3,892.7L953.3,892.7z"/>
				</g>
			</g>
			<g class="st20">
				<path class="st14" d="M953.3,892.2c0.5-0.3,0.9-0.7,1.2-1c1,0,1.6,0.9,2,1.7c2.6,4.7,5.2,9.4,7.8,14.1c1.1,2.1,2.3,4.1,3.1,6.3
					c0.7,1.8,1.1,3.7,1.2,5.5c-2.6-2.4-5.2-4.7-7.8-7.1c-1.4-1.3-2.9-2.6-4.2-4.1c-4-4.5-6.3-10.3-6.4-16.2c1.5,0.1,3,0,4.4-0.3"/>
			</g>
			<g class="st20">
				<path class="st14" d="M998.6,873.5c-1.6,1.3-3.5,2.3-5.7,2.7c9.6,4.3,18.6,9.8,26.5,16.3c0.8,0.6,1.7,1.2,2.6,0.7
					c-5.5-8-15.5-12.5-21.6-20.1"/>
			</g>
			<g class="st25">
				<path class="st14" d="M998.5,760.2c0.2,0.5,0.5,1,0.8,1.5c0.7,1.1,1,2.4,1.3,3.6c0,0,0,0,0.1,0c0-1,0-1.9,0.1-2.8
					c0.2-2,0.7-3.9,0.5-5.9c-0.3-2.9-1.9-5.4-3.5-7.9h-0.1c0.2,3.2,0.5,6.6,0.7,9.8C998.2,759,998.3,759.5,998.5,760.2z"/>
			</g>
		</g>
	</g>
	<g>
		<g>
			<path class="st28" d="M1097,530c2.6-1,5.3-2.1,7.7-3.3c1-0.5,1.9-1,2.7-1.8c1.2-1.4,1.6-3.4,1.8-5.3c0.4-3.9,0.7-7.8,0.9-11.7
				l0.5-0.1c3.2-0.3,6.4,0,9.5,0.9l0.6-1.7c-0.7,1.4-0.5,3.1-0.2,4.6c0.8,4.9,1.1,9.9,0.9,14.8l0.3-1.2c-2.7,1-5.3,1.9-8,2.9
				c-4.6,1.6-9.4,3.3-14.2,2.4"/>
		</g>
		<g>
			<path class="st14" d="M1122.9,524.6c-4.4,1.8-9,3.3-13.7,4.3c-1.2,0.3-2.5,0.5-3.7,0.6c-1.3,0.1-2.7,0.1-4.1,0.1
				c-1.2,0-2.5,0.2-3.7,0.3c-1.8,0.1-3.5,0.4-5.3,0.5c-0.8,0-1.6,0.2-2.3,0.5c-1.7,0.9-1.9,3.3-1.2,5c3.7,0.3,7.4,0.6,11.1,0.7
				c2.1,0.1,4.2-0.1,6.3-0.1c0.6,0,1.2-0.1,1.8-0.3c0.6-0.3,1.1-0.8,1.7-1.3c1.4-1.2,3.4-1.8,5.2-1.6c0.3,1.2,0.5,2.3,0.8,3.5
				c1.8,0.1,3.4,0.1,5.1,0.2c0.3,0,0.5,0,0.8-0.1c0.4-0.2,0.6-0.6,0.7-1c1-3.3,1.3-6.7,1-10.1"/>
		</g>
	</g>
	<path class="st29" d="M1124.4,512.9h-18.5c0,0,9.5-42.7,9.3-76.5c0,0-1.7-12.8,9.3-19.5c10.9-6.6,49.4-28,49.4-28h8.5l-29.4,42.7
		l-8.8,10c0,0-8.8,27.5-12.1,43.7C1128.7,501.5,1124.4,512.9,1124.4,512.9z"/>
	<g class="st25">
		<path class="st30" d="M1208.4,417.8c-12.6,6.8-31.9,2.7-45,8.6c-5.5,2.4-6.9,9.8-12.7,11.8c-7.8,2.7-4.7,2.3-12.8,1.9
			c14.3,3.1,13.6,6.2,28.2,6.1c14.5-0.1,29.6-3.4,41.4-12c2.3-1.8,10.5-6.3,10.8-9.2c0.4-3.7-2.1-4.2-7.8-4.9"/>
	</g>
	<g>
		<g>
			<path class="st28" d="M1175.9,528.3c2-1.9,4-4,5.7-6.2c0.7-0.8,1.4-1.7,1.7-2.8c0.6-1.8,0.1-3.8-0.5-5.5c-1.2-3.8-2.5-7.4-3.8-11
				l0.4-0.3c2.8-1.6,5.9-2.6,9-2.9l-0.1-1.8c-0.1,1.5,0.8,3,1.6,4.3c2.7,4.2,4.9,8.6,6.7,13.2l-0.2-1.2c-2.1,2-4.1,3.9-6.2,5.9
				c-3.6,3.3-7.3,6.8-12,7.8"/>
		</g>
		<g>
			<path class="st14" d="M1197.5,513.1c-3.3,3.4-7,6.6-10.8,9.5c-1,0.7-2.1,1.5-3.2,2.1c-1.2,0.6-2.5,1.2-3.7,1.7
				c-1.1,0.5-2.2,1.2-3.3,1.7c-1.6,0.8-3.1,1.8-4.7,2.6c-0.7,0.3-1.4,0.8-1.9,1.4c-1.1,1.5-0.4,3.8,0.9,5.1c3.5-1.2,7-2.4,10.4-3.8
				c2-0.8,3.9-1.7,5.8-2.6c0.6-0.3,1.1-0.6,1.5-1c0.5-0.5,0.7-1.2,1-1.9c0.8-1.7,2.4-3,4.2-3.5c0.7,1,1.4,1.9,2.1,2.9
				c1.7-0.6,3.2-1.2,4.7-1.9c0.2-0.1,0.5-0.2,0.7-0.4c0.3-0.3,0.3-0.8,0.2-1.2c-0.4-3.4-1.4-6.7-3.1-9.6"/>
		</g>
	</g>
	<path class="st14" d="M1179.3,359.6l5.1,11.5l-63.8-3.7c0,0-7.7,4.1-10.5-3.4c-2.3-6.1-21.3-52.7-21.3-52.7l2.1-8.6l25.1,59.2
		l13.7-0.1l7.7-2.3L1179.3,359.6z"/>
	<g>
		<path class="st29" d="M1197.5,506.7c-0.4,0.5-0.4,1.2-0.8,1.7c-0.6,0.8-1.9,0.7-3,0.6c-6.1-0.9-12.5-0.4-18.6,1.4
			c-0.4-0.9-0.5-2-0.2-3.1c7.1-1.8,14.3-2.3,21.4-1.6c0.3,0,0.4,0.1,0.6,0.2c0.1,0.2,0.1,0.5,0,0.7c-0.2,0.4-0.3,0.9-0.4,1.4"/>
	</g>
	<g>
		<path class="st28" d="M1153.1,372.2l-5.3-1.5c-1-0.1-3-1.1-4-1.4c-6.9-1.7-12.4-7.1-19.2-9.3c1.8,2,3.6,3.9,5.3,5.8
			c-0.7,1.4-2.6,1.5-4.2,1.3c-4.2-0.8-8-2.9-11-5.9c2.1,4.7,6,8.6,10.8,10.5c3.3,1.4,7,1.8,10.6,2.4c4.4,0.7,11.1,1.5,15.4,2.7
			L1153.1,372.2z"/>
	</g>
	<g>
		<g>
			<path class="st28" d="M1202.2,297.9c-4.7,1.6-9.7,1.9-14.6,1c-0.4-0.1-0.9-0.2-1.2-0.5c-0.4-0.4-0.6-0.8-0.8-1.3
				c-0.8-2.1-1.5-4.2-2.3-6.2c-4.9,1.4-10.6-0.1-14.1-3.7c-2.2-2.4-3.4-5.3-4.4-8.3c-1.3-4.1-2.3-8.5-1.5-12.8
				c0.3-1.8,1-3.6,2.6-4.7s3.7-1.3,5.8-1.3c4,0,8,0.2,11.7,1.5c3.7,1.3,7,3.7,8.5,7.3c1.4,3.4,0.9,7.3,1.6,10.9
				c0.6,3.3,2.3,6.4,4,9.3c1.7,2.9,3.4,5.9,5,8.8"/>
		</g>
		<g>
			<path class="st14" d="M1197.2,234.8c0.2-0.7,1.3-0.8,2.1-0.7c7.2,1.2,12.8,7.4,14.3,14.3c0.7,2.9,0.4,6.3-1.8,8.2
				c-1,0.8-2.3,1.2-3.5,1.5c-6.8,1.3-13.7-2.8-17.5-8.3c-0.9-1.4-1.8-2.9-2.1-4.6c-0.6-2.8,0.3-5.9,2.4-8c2.1-2.1,5.1-3.2,8.1-2.8"
				/>
		</g>
		<g>
			<path class="st14" d="M1202.4,255c4,4.9,5.2,11.5,4.2,17.5c-1.1,6.1-4.4,11.8-8.9,16.3c-0.3,0.2-0.5,0.6-0.8,0.7
				c-0.6,0.2-1.1-0.1-1.6-0.2c-3.3-1.3-6.6-2.8-9.5-4.9c-2.9-2.1-5.4-4.8-6.3-8.2c-0.2-0.6-0.3-1.2-0.7-1.6
				c-0.4-0.5-1.2-0.6-1.8-0.8c-3.4-1.1-5.6-4.2-7.8-6.9c-2.3-2.6-5.2-5.3-8.9-5.1c0.2-3.7,2.9-6.9,6.1-8.9c3.3-1.9,7-2.9,10.8-3.7
				c4.5-1,9.1-1.7,13.4-0.8c5.4,1.2,9.7,5,13.8,8.6"/>
		</g>
		<g>
			<g>
				<path class="st31" d="M1163.6,269.9c0.3,0,0.7,0,1,0c0.2,0,1.1-0.4,0.5-0.6c-0.4-0.2-1.1-0.1-1.6-0.1c-0.1,0.2-0.1,0.5-0.3,0.7
					c1.8-0.2,3.4,0.4,4.6,1.6c0.3,0.3,1.5-0.2,1-0.5c-1.5-1.4-3.5-2-5.5-1.8c-0.4,0-1,0.7-0.3,0.7c0.3,0,0.9-0.1,1.1,0.1
					c0.2-0.2,0.4-0.4,0.5-0.6c-0.2,0-0.5,0.1-0.7,0C1163.5,269.3,1162.8,270,1163.6,269.9L1163.6,269.9z"/>
			</g>
		</g>
		<g>
			<g>
				<path class="st31" d="M1165.2,272.8c0,0.4-0.1,0.8-0.3,1.1c0.2,0,0.5-0.1,0.7-0.2c-0.1-0.1-0.1-0.1,0-0.2
					c0.1-0.5-0.7-0.8-0.9-0.3c-0.1,0.2-0.1,0.5,0.1,0.8c0.2,0.2,0.5,0.2,0.7,0c0.4-0.3,0.5-0.9,0.1-1.3c-0.5-0.4-1,0.3-0.6,0.7
					c-0.1-0.1,0-0.2,0-0.2l0,0c0.1-0.2,0.4,0,0.6,0.4c-0.3-0.1-0.6-0.2-0.9-0.3c-0.1,0.5,0.1,0.8,0.4,1.1c0.2,0.2,0.6,0.1,0.7-0.2
					c0.3-0.5,0.4-1,0.3-1.6C1166.1,272.1,1165.2,272.2,1165.2,272.8L1165.2,272.8z"/>
			</g>
		</g>
		<g>
			<path class="st31" d="M1168.5,286.2c1.2,0.2,2.3-0.6,3.3-1.2c-0.5,1.1-1.2,2.1-2,3c-0.1,0.1-0.2,0.2-0.3,0.2
				c-0.2,0-0.2-0.1-0.3-0.1c-0.3-0.2-0.4-0.4-0.6-0.7c-0.1-0.3-0.1-0.6,0.1-0.9"/>
		</g>
		<g class="st32">
			<path class="st14" d="M1184.2,291c0.6-0.1,1.2-0.1,1.7-0.2c0.1,0,0.1,0,0.2,0c0.1,0.1,0.1,0.2,0.1,0.3c0.4,1.7-1.3,3.2-1.1,5
				c0.2-1.7-1.3-3.3-1.5-5.1"/>
		</g>
		<g>
			<path class="st28" d="M1163.5,273.5c0.4,1.1-0.1,2.3-0.6,3.3c-0.5,1.2-1,2.4-1.5,3.6c1.5,0.8,3.2,1.3,4.9,1.2c0.1,0,0.3,0,0.4,0
				c0.3-0.2,0.1-0.5,0.1-0.8c-0.6-1.6-1-3.3-1.6-4.9c-0.3-0.9-0.6-1.9-1.4-2.4"/>
		</g>
		<g>
			<path class="st15" d="M1197.5,255.8c1.2,1,2.5,2.3,4,2.5c1.5,0.3,3.5,0.3,3.6-1.2c0.1-1.5-2.5-2.2-3.9-3c-2.8-1.7-5.6-5-8.4-6.6
				c-0.6-0.4-1.4-0.7-2.1-0.5c-0.5,0.2-1.3-0.3-1.5,0.3c-1.4,3.4,1.4,3.4,3.9,5.5C1193.5,252.7,1195,255,1197.5,255.8"/>
		</g>
	</g>
	<g>
		<g>
			<path class="st33" d="M199.2,930.8c-1.8,4.3-3.5,8.6-5.3,12.8c-0.2,0.5-0.4,1-0.2,1.4c0.2,0.6,0.7,0.8,1.3,1.1
				c3.6,1.6,7.1,3.1,10.7,4.7c0.5,0.2,1.1,0.4,1.5,0.2c0.8-0.3,1-1.4,1.1-2.2c0.3-4.5,1.6-8.8,3.7-12.8c-4.9-1-9.8-2.1-13.9-5"/>
			<path class="st14" d="M193.1,937.9c-0.6,4.2-2.4,8.2-5,11.5c13.5,5.6,27.2,10.3,41.1,14.4c-0.2-2.6-3-3.9-5.5-4.9
				c-6.1-2.5-11.4-6.7-15.4-12c-0.5,1.3-2,2-3.3,1.7c-0.7-0.2-1.4-0.7-1.9-1.1c-3.1-2.5-5.9-5.4-8.1-8.5c-0.6-0.9-1.6-1.8-2.5-1.2"
				/>
			<path class="st33" d="M268.1,940.1c-0.6,4.6-1.2,9.2-1.7,13.8c0,0.5-0.1,1.1,0.2,1.5c0.3,0.5,0.9,0.6,1.5,0.7
				c3.9,0.6,7.7,1.1,11.6,1.7c0.5,0,1.1,0.1,1.5-0.2c0.7-0.5,0.6-1.6,0.5-2.5c-0.9-4.4-0.8-8.9,0.2-13.3c-4.9,0.3-10,0.6-14.7-1.2"
				/>
			<path class="st14" d="M263.1,949.9c1.1,4.1,1.1,8.5,0.1,12.5c14.6-0.3,29.1-1.5,43.5-3.3c-1.2-2.3-4.4-2.3-7-2.3
				c-6.6,0.1-13.1-1.6-18.9-4.8c0.1,1.4-1,2.6-2.3,2.8c-0.7,0.1-1.5-0.1-2.2-0.3c-3.8-1-7.5-2.5-10.9-4.6c-0.9-0.6-2.2-1-2.7-0.1"/>
			<path class="st34" d="M282.1,810c0,0,4.4,23,3.9,45.8s-0.4,44.7,0,51c0.4,6.3-2,39.4-2,39.4h-19.9v-51.5c0,0-8.7-44.7-14.6-51.5
				c0,0-1.4,41.8-4.8,48.1c-3.4,6.3-32.8,51.2-32.8,51.2l-15.8-9.9l24.8-51.5l-1.7-48.7l-0.2-33.4l59.8-7.8L282.1,810z"/>
			<path class="st35" d="M266.5,929.7l2.5-29.2c0,0,0.9-13.3-2.5-25.4s-10-29-10-29l-3.6-8.7l1.2,16.4l9.9,40.9L266.5,929.7z"/>
			<path class="st35" d="M199.9,924.8c0,0,8.4-1.4,11.8-4.3c3.4-2.9,16.5-36.9,16.5-36.9l-8.7-42.7l1.4,40.3L199.9,924.8z"/>
		</g>
		<path class="st36" d="M215.2,700.6c0,0,2.4-8.4,5.2-11.3c2.8-2.9,14.5-6.2,14.5-6.2s7,0.2,16.5,2.1c6.9,1.4,6.5-2.1,6.5-2.1
			s6.8,1,8.4,2.9c1.6,1.9,6.5,11.5,6.5,11.5s4.5,8.2,4.5,17.6c0,9.4,0,14.6,0,14.6l4.7,68.5c0,0-6,3.7-13,3.7s-18.1,0-18.1,0
			l-30.6-5.8l-9.2-47.5L215.2,700.6z"/>
		<path class="st36" d="M280.7,705.1l-7.8-7.5c0,0,4.5,8.9,4.5,17.6c0,8.7-0.4,17.4-0.4,17.4l7.5-3.1l4.5-18.8L280.7,705.1z"/>
		<path class="st1" d="M280.7,705.1l-7.8-7.5c0,0,4.5,8.9,4.5,17.6c0,8.7-0.4,17.4-0.4,17.4l7.5-3.1l4.5-18.8L280.7,705.1z"/>
		<g>
			
				<rect x="223.5" y="747" transform="matrix(0.7306 -0.6828 0.6828 0.7306 -449.6878 389.7302)" class="st23" width="91.1" height="35.5"/>
			
				<rect x="232.4" y="769.7" transform="matrix(0.7306 -0.6828 0.6828 0.7306 -471.7505 379.2533)" class="st1" width="24.5" height="35.5"/>
		</g>
		<g>
			<polygon class="st29" points="237,858.2 237,858.2 237,858.2 			"/>
			<path class="st29" d="M180.8,798.3L180.8,798.3C180.8,798.4,180.8,798.4,180.8,798.3L180.8,798.3z"/>
			<path class="st23" d="M175.5,837.4l30-29.2l24.6,22.7l-31.1,30.7l-1.9,1.9l5.1-0.7l34.6-4.6c0,0,0,0,0,0
				c11.8-7.4,19.6-20.5,19.6-35.4c0-23.1-18.7-41.8-41.8-41.8c-13.9,0-26.3,6.8-33.9,17.3c0,0,0,0.1-0.1,0.1l-6.2,36.4l-0.7,4.2
				L175.5,837.4z"/>
		</g>
		<path class="st33" d="M307.4,720.2c1.4-1.1,3.6-0.9,4.8,0.4c0.4,0.5,0.7,1,1.2,1.3c0.4,0.2,1,0.3,1.5,0.4c2.1,0.3,4,0.9,6,0.1
			c-1.2-0.5-2.3-1-3.3-1.8c2.9-2.3,6.5-3.4,9.9-5c1.4-0.6,2.9-1.7,2.8-3.3c0-0.7-0.6-1.5-1.3-1.6c-0.7-0.2-1.6,0.2-2.1,0.8
			c-0.7-1.1,0.7-3,0-4.1c-0.4-0.6-1.3-0.7-1.9-1.2c-0.6-0.5-1-1.4-1.8-1.6c-0.6-0.2-1.2,0-1.8,0.3c-5.7,2.5-11.3,5.3-16.9,8.1"/>
		<path class="st33" d="M267.2,752.4c1.8-0.3,3.2-1.9,3.1-3.7c-0.1-0.6-0.2-1.2-0.1-1.7c0.1-0.5,0.4-0.9,0.8-1.3
			c1.3-1.7,2.2-3.5,4.2-4.3c-0.5,1.2-0.9,2.3-1,3.6c3.7-0.5,7-2.3,10.5-3.5c1.4-0.5,3.2-0.9,4.3,0.3c0.5,0.5,0.6,1.5,0.2,2.1
			c-0.4,0.6-1.2,1-2.1,0.9c0.3,1.3,2.6,1.6,2.9,2.9c0.1,0.7-0.4,1.4-0.5,2.2c-0.1,0.8,0.3,1.7-0.1,2.4c-0.2,0.5-0.9,0.8-1.5,1
			c-5.8,2.3-11.7,4.3-17.6,6.3"/>
		<g>
			<g>
				<g>
					<path class="st33" d="M263.5,642.7c-0.1-0.6-0.4-1.2-1-1.7c6.3,7.3,6.9,17.3,5.3,26.3c-0.6,3.7-2.3,8-6.3,8.6
						c-1.4,0.2-3,0-4,0.7c-1.9,1.2-1.1,3.7-1.3,5.7c-0.5,2.8-3.3,4.8-6.3,5.4c-3,0.6-6.2-0.1-9.1-1.1c-1.1-0.4-2.3-0.8-3-1.7
						c-1.9-2.3-0.1-5.3,0.9-8.1c0.8-2.2,0.8-4.6-0.2-6.8c-0.8-1.8-2.2-3.2-3.1-4.9c-1.5-2.9-1.6-6.3-1.5-9.5
						c0.2-4.9,0.8-10.4,4.7-13.7c3.6-3.1,8.8-3.5,13.7-3.8c2.3-0.1,4.6-0.3,6.9,0.4c2.2,0.7,4,2.6,4,4.6"/>
				</g>
				<g>
					<g>
						<g>
							<path class="st14" d="M259,653.8C259.1,653.9,259.1,653.9,259,653.8c0.1,0.1,0.1,0.3,0.1,0.3c0.3-0.3,0.5-0.7,0.3-1
								c-0.2-0.3-0.5-0.3-0.8-0.1c-0.3,0.3,0.2,0.7,0.4,0.5c-0.1,0.1-0.3,0.2-0.3,0.3c0,0.1-0.1,0.2-0.1,0.3c0.1,0.4,0.7,0.7,1,0.3
								c0.3-0.4,0-1-0.5-1C258.8,653.3,258.6,653.9,259,653.8L259,653.8z"/>
						</g>
					</g>
					<g>
						<g>
							<path class="st14" d="M267.3,654C267.3,654,267.4,654,267.3,654c0.1,0.1,0.1,0.3,0.1,0.3c0.3-0.3,0.5-0.7,0.3-1
								c-0.2-0.3-0.5-0.3-0.8-0.1c-0.3,0.3,0.2,0.7,0.4,0.5c-0.1,0.1-0.3,0.2-0.3,0.3c0,0.1-0.1,0.2-0.1,0.3c0.1,0.4,0.7,0.7,1,0.3
								s0-1-0.5-1C267,653.5,266.9,654,267.3,654L267.3,654z"/>
						</g>
					</g>
					<g>
						<g>
							<path class="st14" d="M255.1,652.9c0.7-1.4,2.4-2.6,4-1.9c0.2,0.1,0.3-0.2,0.2-0.2c-1.7-0.8-3.6,0.4-4.4,2
								C254.8,652.9,255.1,653.1,255.1,652.9L255.1,652.9z"/>
						</g>
					</g>
					<g>
						<g>
							<path class="st14" d="M266,651.7c0.8-0.6,2.4-1.2,2.9-0.1c0.1,0.1,0.4,0,0.3-0.2c-0.6-1.4-2.5-0.7-3.4,0
								C265.7,651.6,265.9,651.7,266,651.7L266,651.7z"/>
						</g>
					</g>
					<g class="st37">
						<path class="st14" d="M264.6,657.9c0.6,1,0.4,2,0.9,3c0.1,0.1,0.1,0.3,0.1,0.3c-0.1,0.2-0.7,0.2-1,0.1
							c-0.3-0.1-0.8-0.3-1.1-0.3c0.3-0.9,0.5-1.8,0.5-2.8"/>
					</g>
					<g>
						<g>
							<path class="st14" d="M264.1,654.4c0.2,1.1,0.4,2.2,0.6,3.3c0.1,0.5,0.2,1,0.3,1.5c0.1,0.3,0.1,0.5,0.2,0.8
								c0.3,0.7-0.1,1.2-1,1.4l0,0c0.4,0.6,1.2,0.2,1.2-0.4c0.1-0.9-0.3-2-0.5-2.8C264.7,657,264.4,655.7,264.1,654.4L264.1,654.4
								L264.1,654.4z"/>
						</g>
					</g>
				</g>
			</g>
			<path class="st24" d="M269,636.6c-0.2-0.7-0.6-1.2-1.5-1.4c-1.1-0.2-0.2-1.9-1.3-2.3c-1.8-0.3-1.8,0.1-3.6-0.2
				c-2.9-0.4-6.3-2.4-9.2-1.9c-2.9,0.5-5.9,0.5-8.6,1.8c-0.6,0.4-4.8,1.1-5.3,1.4c-4.5,2.7-5.4,6.1-6.7,10.8
				c-1.3,4.6-0.5,17.4,1.9,18.9c0.1,0.1,0.1,0.2,0.2,0.3c0.3-1.3,1.3-4.9,2.4-5.9c-0.3-0.2-0.6-0.4-0.8-0.6c-1.6-1.3-2-3.7-0.7-5.4
				c1.2-1.6,3.8-2,5.4-0.7c0,0,0.3,0.2,0.4,0.3c0.2,0.1,0.5,0.3,0.6,0.3c0.2,0.1,0.5,0.2,0.7,0.3c0.1,0,0.3,0.1,0.3,0.1
				c0.6,0.1,1.1,0.2,1.7,0.3c0.1,0,0.1,0,0.2,0c0,0,0.1,0,0.1,0c0.2,0,0.5-0.1,0.7-0.1c0.4-0.1,0.9,0,1.3,0c-0.1-2-0.3-2.9,1.1-6.8
				c1.5,0.4,6.8-0.6,8.4-0.2c2.2,0.5,5.4,2,7.6,1.4c0.2-0.1,2-0.2,2.3-0.2c0.8-0.3,0.8-0.4,1.5-0.8C273,643.8,270.2,640.5,269,636.6
				z"/>
			<path class="st38" d="M266,665.6c-0.1,2.3-0.7,3.1-3.9,3c-2,0-3.3-2-3.5-3.7C261.9,665.2,262.9,666.1,266,665.6z"/>
			<g>
				<path class="st24" d="M249.7,644l-13.9,0l0-7c-0.4,0.5-0.8,0.9-1.2,1.4c-3.4,4.9-4.6,11-3.7,16.8s3.7,11.4,7.4,16.3
					c1.8-3,3.6-6.8,1.6-9.8c-1.1-1.8-3.2-3.4-2.2-5.1c0.6-1.2,2.4-1.2,3.6-0.5c1.3,0.7,1.9,1.9,2.6,2.9c2.7-1.6,5.7-3.3,6.4-6.2
					C251.1,650,249.3,646.9,249.7,644z"/>
			</g>
			<path class="st3" d="M253.3,684.7c0.1,0,0.3,0,0.4-0.1c0.6-0.8,1.5-0.8,2.4-0.9c0.3-0.1,0.6-0.2,0.9-0.4
				c-0.2-0.6-0.3-1.1-0.4-1.5c0.2,0.1,0.4,0.1,0.6,0.2c0.4,0.3,0.8,0.7,1.3,1.1c0.1,0.5,0,1.3,0.8,1.7c0.1,0,0.1,0.4,0.1,0.6
				c-0.4,1.3-0.8,2.6-1.2,3.9c-0.2,0.7-0.5,1.4-0.8,2.3C255.7,689.3,254.6,687,253.3,684.7z"/>
			<path class="st3" d="M232.2,682.1c0.9-0.2,1.4-0.6,1.5-1.8c0-0.7,0.6-1.5,0.9-2.2c0.7-0.3,2.6-0.5,2.7-0.2
				c0.8,0.7,5.7,2.6,6.2,2.5c0.2,0,7.7,3,8.4,3.1c0.6,0.2,1.4,0.2,1.8,0.9c-0.1,0.3-0.1,0.6-0.2,0.8c-0.6,0.9-1.2,1.8-1.9,2.7
				c-1,1.4-2.1,2.7-3.1,4.1c-0.1,0.1-0.2,0.3-0.4,0.5c-1.4-1-2.9-2-4.3-3c-1.1-0.7-2.3-1.4-3.4-2.2c-1.3-0.8-2.6-1.7-3.9-2.6
				c-1.2-0.8-2.4-1.6-3.6-2.4C232.5,682.6,232.2,682.3,232.2,682.1z"/>
		</g>
		<g>
			<polygon class="st29" points="299.4,677.9 299.4,677.9 299.5,677.9 			"/>
			<path class="st29" d="M355.6,737.8L355.6,737.8C355.6,737.8,355.6,737.8,355.6,737.8L355.6,737.8z"/>
			<path class="st23" d="M362,697.7l-30,29.2l-24.6-22.7l31.1-30.7l1.9-1.9l-5.1,0.7l-34.6,4.6c0,0,0,0,0,0
				c-11.8,7.4-19.6,20.5-19.6,35.4c0,23.1,18.7,41.8,41.8,41.8c13.9,0,26.3-6.8,33.9-17.3c0,0,0-0.1,0.1-0.1l6.2-36.4l0.7-4.2
				L362,697.7z"/>
		</g>
		<path class="st36" d="M224.2,757.2l7.4-34c0,0,11.3-18.9-3.4-24.3c-11.7-4.3-14.2,3.9-14.2,3.9s-10.5,23.8-11.4,39.4
			s5.5,35,5.5,35s3.5,2.6,6.6,3.9c11.8,5,24.5-0.2,30-2.9c5.5-2.7,25.6-15.2,26.2-16.8c0.6-1.6-1-8.1-1-12.6
			C270,744.1,262.7,759.3,224.2,757.2z"/>
		<path class="st1" d="M229,735.1c0,0-9.9,12.2-8.3,27.7c0,0,14.8-0.1,20.4-5.9l-16.9,0.2L229,735.1z"/>
	</g>
	<path class="st39" d="M1124.4,512.9h-18.5c0,0,9.5-42.7,9.3-76.5c0,0-1.7-12.8,9.3-19.5c10.9-6.6,49.4-28,49.4-28h8.5l-29.4,42.7
		l-8.8,10c0,0-8.8,27.5-12.1,43.7C1128.7,501.5,1124.4,512.9,1124.4,512.9z"/>
	<path class="st29" d="M1224.2,388.9c0,0,1.4,7.1-3.8,23.3c-4.5,13.9-41.4,16.5-51.6,17c-2.2,0.1-4,1.9-4,4.2c0,1.7,0.3,4.1,1.5,7.3
		c3.3,9.5,29.4,65.1,30.9,66.5s-21.8,0-21.8,0l-36.1-61.3c0,0-5.7-15.7,0-22.3c5.7-6.6,40.5-32.8,40.5-32.8L1224.2,388.9z"/>
	<path class="st40" d="M1186.4,298.5c0,0-12.1,32.5-11.1,38.2c0.9,5.7,2.6,21.4,2.6,21.4v28.5c0,0-2.8,1.9,1.8,4.3
		s43.1,2.4,44.5-1.9c1.4-4.3-0.6-31.9-0.6-31.9s-11-47.8-12.4-50.6S1186.4,298.5,1186.4,298.5z"/>
	<path class="st40" d="M1196.6,294.4c0,0-11.4,1.9-10.4,13.8s24.2,40.4,17.6,48.4c-6.6,8.1-31.5,11.7-53.8,11.7
		c0,0-0.8,15.7-0.1,14.4c1-2,36.8-1,50.1-4.3c13.3-3.3,24.6-7.6,24.4-14.2C1224.2,357.6,1221.1,299.4,1196.6,294.4z"/>
	<g>
		<path class="st29" d="M1126.4,512.5c-0.1-0.9-1-1.6-1.9-1.7c-0.9-0.1-1.8,0.2-2.7,0.4c-4,0.9-8.1,1-12.1,0.9c-2.1,0-4.3,0-6.3-0.5
			c-0.5,0.6,0,1.6,0.7,1.9c0.7,0.4,1.5,0.2,2.3,0.1c2.1-0.3,4.3-0.1,6.4,0.2c1.5,0.3,2.8,0.7,4.3,0.9c2.9,0.4,5.8,0.2,8.7,0
			c0.2,0,0.4,0,0.5-0.2c0.2-0.2,0.2-0.4,0.2-0.6c0.1-0.9,0.2-1.8,0.2-2.6"/>
	</g>
	<g class="st25">
		<path class="st14" d="M1126.4,512.5c-0.1-0.9-1-1.6-1.9-1.7c-0.9-0.1-1.8,0.2-2.7,0.4c-4,0.9-8.1,1-12.1,0.9c-2.1,0-4.3,0-6.3-0.5
			c-0.5,0.6,0,1.6,0.7,1.9c0.7,0.4,1.5,0.2,2.3,0.1c2.1-0.3,4.3-0.1,6.4,0.2c1.5,0.3,2.8,0.7,4.3,0.9c2.9,0.4,5.8,0.2,8.7,0
			c0.2,0,0.4,0,0.5-0.2c0.2-0.2,0.2-0.4,0.2-0.6c0.1-0.9,0.2-1.8,0.2-2.6"/>
	</g>
	<g class="st25">
		<path class="st14" d="M1197.5,506.7c-0.4,0.5-0.4,1.2-0.8,1.7c-0.6,0.8-1.9,0.7-3,0.6c-6.1-0.9-12.5-0.4-18.6,1.4
			c-0.4-0.9-0.5-2-0.2-3.1c7.1-1.8,14.3-2.3,21.4-1.6c0.3,0,0.4,0.1,0.6,0.2c0.1,0.2,0.1,0.5,0,0.7c-0.2,0.4-0.3,0.9-0.4,1.4"/>
	</g>
	<g>
		<path class="st41" d="M727.4,315.5c-35.8,5.8-68.3,11.1-101.7,16.5c-4.1-10.9,0.3-21.6-0.9-34.5c-5.3-3.2-12-7.1-20.2-12
			c7.3-7.2,14.2-14.1,22.2-22c1-4.7,2.2-10.8,4-19.6C663.2,268,693.6,290.5,727.4,315.5z"/>
		<g>
			<g>
				<path class="st15" d="M537.5,517.5c-0.4,0-0.8-0.2-1.1-0.5c-0.1-0.1-1.5-1.5-3.6-4.2c-0.6-0.8-0.5-1.9,0.3-2.5
					c0.8-0.6,1.9-0.5,2.5,0.3c2,2.5,3.3,3.8,3.3,3.9c0.7,0.7,0.7,1.8,0,2.5C538.5,517.4,538,517.6,537.5,517.5z"/>
			</g>
			<g>
				<path class="st15" d="M528.2,505c-0.6,0-1.1-0.3-1.4-0.9c-1.8-3.1-3.5-6.3-4.9-9.4c-0.4-0.9,0-1.9,0.9-2.3
					c0.9-0.4,1.9,0,2.3,0.9c1.3,3,2.9,6.1,4.6,9c0.5,0.8,0.2,1.9-0.6,2.4C528.9,504.9,528.6,505,528.2,505z M520,485.9
					c-0.7,0-1.4-0.6-1.6-1.3c-0.9-3.5-1.6-7-1.9-10.5c-0.1-1,0.6-1.8,1.6-1.9c1-0.1,1.8,0.6,1.9,1.6c0.3,3.3,1,6.6,1.8,9.9
					c0.3,0.9-0.3,1.9-1.2,2.2C520.4,485.9,520.2,485.9,520,485.9z M518,465.3C518,465.3,518,465.3,518,465.3c-1-0.1-1.7-0.9-1.6-1.9
					c0.3-3.5,0.8-7.1,1.7-10.5c0.2-0.9,1.2-1.5,2.1-1.3c0.9,0.2,1.5,1.2,1.3,2.1c-0.8,3.3-1.4,6.6-1.6,9.9
					C519.8,464.7,518.9,465.4,518,465.3z M523,445.3c-0.2,0-0.4-0.1-0.6-0.1c-0.9-0.4-1.3-1.4-0.9-2.3c1.4-3.2,3-6.3,4.9-9.4
					c0.5-0.8,1.6-1.1,2.4-0.6c0.8,0.5,1.1,1.6,0.6,2.4c-1.8,2.9-3.4,6-4.7,9C524.4,444.9,523.7,445.3,523,445.3z M533.8,427.6
					c-0.3,0-0.7-0.1-1-0.4c-0.8-0.6-0.9-1.7-0.3-2.5c2.1-2.7,4.5-5.3,7-7.9c0.7-0.7,1.8-0.7,2.5,0c0.7,0.7,0.7,1.8,0,2.5
					c-2.4,2.5-4.7,5.1-6.8,7.6C534.9,427.4,534.4,427.6,533.8,427.6z M613.8,423l-0.3,0c-3.5-0.2-7-0.6-10.2-1.2
					c-1-0.2-1.6-1.1-1.4-2c0.2-1,1.1-1.6,2-1.4c3.1,0.5,6.4,0.9,9.8,1.1l0.3,0c1,0.1,1.7,0.9,1.6,1.9
					C615.6,422.3,614.8,423.1,613.8,423z M624.1,422c-0.7,0-1.3-0.5-1.6-1.2c-0.3-0.9,0.2-1.9,1.1-2.3c3-1.1,5.5-2.9,7.5-5.5
					c0.6-0.8,1.7-0.9,2.5-0.3c0.8,0.6,0.9,1.7,0.3,2.5c-2.4,3.1-5.5,5.3-9.1,6.6C624.6,422,624.3,422,624.1,422z M593.4,419.4
					c-0.1,0-0.3,0-0.4-0.1c-3.5-1.1-6.8-2.5-9.9-4.1c-0.9-0.4-1.2-1.5-0.8-2.4c0.4-0.9,1.5-1.2,2.4-0.8c2.9,1.5,6,2.8,9.3,3.8
					c0.9,0.3,1.4,1.3,1.1,2.2C594.9,419,594.2,419.5,593.4,419.4z M548.2,412.7c-0.5,0-0.9-0.2-1.2-0.6c-0.6-0.7-0.6-1.8,0.2-2.5
					c2.6-2.2,5.3-4.4,8.2-6.6c0.8-0.6,1.9-0.4,2.5,0.3c0.6,0.8,0.4,1.9-0.3,2.5c-2.8,2.1-5.5,4.3-8,6.5
					C549.2,412.6,548.7,412.7,548.2,412.7z M575.1,409.9c-0.3,0-0.7-0.1-1-0.4c-2.8-2.2-5.4-4.8-7.7-7.5c-0.6-0.8-0.5-1.9,0.2-2.5
					c0.8-0.6,1.9-0.5,2.5,0.2c2.1,2.6,4.5,4.9,7.1,7c0.8,0.6,0.9,1.7,0.3,2.5C576.2,409.7,575.6,409.9,575.1,409.9z M636.6,406.6
					c-0.1,0-0.2,0-0.3,0c-0.9-0.2-1.5-1.2-1.3-2.1c0.3-1.4,0.5-2.8,0.6-4.2c0.1-1.9,0-3.8-0.3-5.4c-0.2-1,0.4-1.9,1.4-2.1
					c1-0.2,1.9,0.4,2.1,1.4c0.4,1.9,0.5,4.1,0.4,6.3c-0.1,1.6-0.3,3.2-0.7,4.7C638.3,406.1,637.5,406.6,636.6,406.6z M564.8,400.1
					c-0.5,0-1-0.3-1.4-0.8c-0.5-0.8-0.3-1.9,0.5-2.4c0.5-0.3,1-0.7,1.5-1c0.1,0,2.8-2,7.3-4.7c0.8-0.5,1.9-0.2,2.4,0.6
					c0.5,0.8,0.2,1.9-0.6,2.4c-4.3,2.6-7.1,4.5-7.1,4.5c-0.6,0.4-1.1,0.7-1.6,1C565.6,400.1,565.2,400.2,564.8,400.1z M561.9,394
					c-0.6,0-1.1-0.4-1.4-0.9c-1-1.9-2-4-2.8-6.1c-0.5-1.3-1-2.5-1.4-3.8c-0.3-0.9,0.2-1.9,1.2-2.2c0.9-0.3,1.9,0.2,2.2,1.2
					c0.4,1.2,0.8,2.4,1.3,3.5c0.8,2,1.7,3.9,2.7,5.7c0.5,0.9,0.1,1.9-0.7,2.4C562.6,393.9,562.2,394,561.9,394z M582.7,389.6
					c-0.6,0-1.2-0.4-1.5-1c-0.4-0.9-0.1-1.9,0.8-2.4c3.3-1.6,6.6-3,9.7-4.2c0.9-0.3,1.9,0.1,2.3,1c0.3,0.9-0.1,1.9-1,2.3
					c-3,1.1-6.2,2.5-9.4,4C583.3,389.5,583,389.6,582.7,389.6z M632,387.3c-0.4,0-0.8-0.2-1.1-0.5c-2.2-2-5-3.5-8.4-4.4
					c-0.9-0.3-1.5-1.2-1.2-2.2c0.3-0.9,1.2-1.5,2.2-1.2c4,1.1,7.3,2.8,9.8,5.2c0.7,0.7,0.8,1.8,0.1,2.5
					C633,387.2,632.5,387.4,632,387.3z M602.3,382.6c-0.8,0-1.4-0.6-1.6-1.4c-0.2-1,0.4-1.9,1.4-2.1c1.1-0.2,2.3-0.4,3.4-0.6
					c2.5-0.4,5-0.6,7.3-0.6c1,0,1.8,0.8,1.8,1.7c0,1-0.8,1.8-1.7,1.8c-2.2,0-4.5,0.2-6.8,0.6c-1,0.1-2.1,0.3-3.2,0.6
					C602.6,382.6,602.4,382.6,602.3,382.6z M555.9,374.2c-0.9-0.1-1.6-0.7-1.6-1.6c-0.2-2.1-0.2-4.3,0-6.5c0.1-1.4,0.3-2.9,0.5-4.3
					c0.2-1,1-1.6,2-1.5c1,0.2,1.6,1.1,1.5,2c-0.2,1.3-0.4,2.7-0.4,4c-0.1,2-0.1,4,0,6c0.1,1-0.7,1.8-1.6,1.9
					C556.1,374.2,556,374.2,555.9,374.2z M559.1,353.8c-0.2,0-0.4,0-0.5-0.1c-0.9-0.4-1.4-1.4-1-2.3c1.3-3.3,2.9-6.5,4.9-9.5
					c0.5-0.8,1.6-1,2.4-0.5c0.8,0.5,1.1,1.6,0.5,2.4c-1.8,2.9-3.4,5.8-4.6,8.9C560.5,353.5,559.8,353.9,559.1,353.8z M570.3,336.5
					c-0.4,0-0.8-0.2-1.1-0.5c-0.7-0.7-0.7-1.8-0.1-2.5c2.4-2.5,5-4.9,7.9-7.1c0.8-0.6,1.9-0.4,2.5,0.3c0.6,0.8,0.4,1.9-0.3,2.5
					c-2.7,2.1-5.2,4.4-7.5,6.8C571.3,336.3,570.8,336.5,570.3,336.5z M586.6,323.8c-0.6,0-1.1-0.4-1.4-0.9c-0.5-0.8-0.2-1.9,0.7-2.4
					c3-1.7,6.2-3.3,9.5-4.6c0.9-0.4,1.9,0.1,2.3,1c0.4,0.9-0.1,1.9-1,2.3c-3.2,1.3-6.3,2.8-9.1,4.5
					C587.3,323.7,587,323.8,586.6,323.8z"/>
			</g>
			<g>
				<path class="st15" d="M605.9,315.7c-0.7,0-1.4-0.5-1.6-1.3c-0.3-0.9,0.3-1.9,1.2-2.2c1.7-0.5,3.5-1,5.2-1.4
					c1-0.2,1.9,0.4,2.1,1.3c0.2,0.9-0.4,1.9-1.3,2.1c-1.7,0.4-3.4,0.9-5,1.3C606.3,315.7,606.1,315.8,605.9,315.7z"/>
			</g>
		</g>
		<polyline class="st15" points="723.9,315.2 605.8,283.2 629.2,269 		"/>
	</g>
	<path class="st41" d="M942.6,385.8c-0.1-0.5-0.2-0.9-0.4-1.4c-0.4-0.9-0.1-1.5,0.6-2c0.3-0.2,0.7-0.3,1-0.6c2-1.5,2-1.8,1-4.2
		c-0.2-0.4-0.3-0.7-0.4-1.1c-1-2.9-1.1-3-3.9-1.9c-1.2,0.5-2.3,0.8-3.2-0.4c-0.3-0.4-0.5-1-0.7-1.5c-0.1-0.3,0-0.6,0-0.9
		c-0.1-1-1.2-2.1-0.3-3c0.7-0.7,1.9-0.9,2.9-1.3c2.2-0.8,2.2-0.8,2.2-3c0-0.6,0-1.2,0-1.8c0-1.8-0.5-2.3-2.4-2.5
		c-1-0.1-1.9,0-2.9-0.5c-0.9-0.5-1.4-1-1.3-2.1c0.2-1.2,0.4-2.5,0.8-3.7c0.1-0.4,0.9-0.8,1.4-0.9c1.3-0.1,2.6,0,3.9,0
		c0.7,0,1-0.2,1.1-1c0.1-1.2,0.2-2.4,0.7-3.4c0.7-1.3,0.2-1.7-0.9-2.2c-1.1-0.5-2.1-1.2-3.1-1.6c-1-0.4-1-1-0.6-1.8
		c0.4-1,0.8-2,1.2-3c0.4-1.2,1.2-1.5,2.3-1.3c0.9,0.2,1.9,0.4,2.8,0.9c1,0.5,1.7,0.4,2.3-0.5c0.9-1.2,1.6-2.4,2.4-3.7
		c0.1-0.2-0.1-0.8-0.3-1c-0.8-0.9-1.6-1.7-2.5-2.5c-0.8-0.7-0.9-1.7-0.4-2.4c0.9-1.2,2-2.2,3.2-3.1c0.3-0.2,1.1,0.1,1.6,0.3
		c1.1,0.6,2.2,1.3,3.2,2.1c0.7,0.5,1.2,0.4,1.8-0.2c0.6-0.7,1.2-1.3,1.9-1.9c1.6-1.4,1.6-1.4,0.8-3.3c-0.5-1.1-1.3-2.3-1-3.2
		c0.3-0.9,1.8-1.3,2.7-2c0.2-0.2,0.4-0.4,0.7-0.6c1.2-0.7,2.2-0.4,3,0.8c0.8,1.2,1.6,2.4,2.4,3.6c0.8-0.4,1.3-0.7,1.9-0.9
		c1.2-0.5,2.8-0.6,3.3-1.4c0.6-0.9,0.2-2.5,0.2-3.8c0-2.3,0-2.3,2.4-2.8c0.4-0.1,0.8-0.2,1.1-0.3c2.3-0.6,2.4-0.6,3.1,2
		c0.9,3.7,0.9,3.7,4.8,3.7c0.5,0,1,0.1,1.5-0.1c0.3-0.1,0.7-0.4,0.8-0.7c0.5-1.3,0.8-2.6,1.3-3.9c0.4-1.2,1-1.6,2.2-1.3
		c0.5,0.1,0.9,0.4,1.4,0.5c0.8,0.2,2,0.1,2.4,0.6c0.5,0.7,0.4,1.8,0.5,2.8c0,0.3,0,0.6,0,0.9c0,2.4,0,2.4,2.3,2.9
		c0.3,0.1,0.6,0,0.9,0.1c2.6,0.8,2.6,0.8,4-1.3c2.3-3.4,1.9-2.6,4.7-1.1c0.3,0.2,0.7,0.4,1,0.6c1.7,0.9,1.7,1,1,2.7
		c0,0.1-0.1,0.2-0.1,0.3c-0.3,1.2-0.7,2.4-1,3.5c1.3,1.1,2.7,2.3,4,3.4c0.1,0.1,0.5-0.1,0.7-0.2c1.1-0.8,2.2-1.7,3.2-2.6
		c0.7-0.6,1.4-0.7,2.1,0c0.9,0.9,1.9,1.8,2.7,2.8c0.7,0.8,0.6,1.8-0.1,2.6c-0.6,0.8-1.4,1.4-2.1,2.1c-0.7,0.7-1,1.5-0.2,2.3
		c0.1,0.1,0.3,0.3,0.4,0.4c0.8,1.1,1.3,2.8,2.4,3.2c1,0.4,2.5-0.6,3.8-1c1.5-0.5,2.5-0.1,3.1,1.2c0.3,0.6,0.4,1.3,0.7,1.9
		c0.6,1.5,0.5,2-0.8,2.9c-0.7,0.5-1.6,0.8-2.3,1.3c-0.7,0.5-1.2,1.1-1,2c0.3,1.2,0.7,2.4,1,3.6c0.2,0.8,0.7,1.1,1.5,1.1
		c1.2-0.1,2.4,0,3.6,0c1.1,0,1.6,0.6,1.7,1.6c0,0.7,0,1.4,0,2.1c0,2.9-0.2,3.2-3.3,3.4c-0.4,0-0.8,0-1.2,0c-0.9,0.1-1.4,0.6-1.5,1.5
		c0,0.1,0,0.2,0,0.3c0.2,5.1-1.2,4.2,3.9,6c1.3,0.5,1.7,1.1,1.4,2.5c-0.1,0.7-0.4,1.3-0.6,1.9c-0.6,2.7-0.6,2.7-3.4,2.1
		c-1.1-0.2-2.3-0.3-3.4-0.5c-0.5,1.6-1,3.3-1.7,4.8c-0.3,0.8-0.1,1.1,0.3,1.4c0.8,0.7,1.8,1.2,2.5,2c1.1,1.1,1.1,1.8,0.3,3.1
		c-0.3,0.5-0.6,1-0.9,1.5c-1.5,2.1-2,2.1-4.3,0.6c-0.3-0.2-0.7-0.4-1-0.6c-1.5-0.8-2-0.7-3,0.6c-0.8,1.1-1.7,2.2-2.5,3.4
		c0.7,1.1,1.4,2.3,2.2,3.5c0.7,1,0.7,1.8-0.2,2.6c-1,0.8-2,1.6-3,2.3c-0.2,0.2-0.9-0.1-1.2-0.3c-1-0.9-1.9-1.7-2.7-2.7
		c-0.8-1-1.7-0.7-2.5-0.2c-0.3,0.1-0.5,0.4-0.7,0.5c-2.8,1.9-2.8,1.9-2.2,5.4c0.1,0.4,0,0.8,0,1.2c0.1,1.1-0.2,1.7-1.5,2
		c-1.3,0.3-2.7,1.5-3.9,0.9c-0.9-0.5-1.5-2-1.9-3.1c-0.5-1.4-1.5-1.7-2.8-1.5c-1.2,0.2-2.5,0.4-3.7,0.7c-0.3,0.1-0.5,0.5-0.6,0.9
		c-0.1,1.2-0.2,2.4,0,3.6c0.2,1.3-0.7,1.7-1.5,1.8c-1.2,0.3-2.6,0.2-3.8,0.2c-1-0.1-1.8-1.2-1.9-2.3c-0.1-0.9,0-1.8,0-2.7
		c0-0.9-0.6-1.4-1.5-1.5c-1.2-0.2-2.3-0.4-3.4-0.6c-0.9-0.1-1.5,0.1-1.8,1c-0.5,1.2-1.1,2.5-1.8,3.6c-0.2,0.3-0.8,0.7-1.2,0.6
		c-1.4-0.3-2.8-0.7-4.2-1.2c-0.6-0.2-1.2-0.7-0.7-1.6c0.3-0.5,0.3-1.1,0.3-1.7c0.2-1.1,0.8-2.5,0.3-3.3c-0.5-0.9-2-1.1-3-1.7
		c-0.6-0.3-1.2-0.6-2-1.1c-0.8,1.1-1.7,2.1-2.5,3.2c-0.8,1.1-1.2,1.2-2.5,0.5c-1.2-0.7-2.3-1.5-3.3-2.4c-0.3-0.2-0.8-0.8-0.3-1.5
		c0.5-0.7,0.8-1.6,1.2-2.3c0.4-0.7,1.1-1.2,1.2-1.9c0-0.5-0.8-1.1-1.3-1.5c-3.3-3.2-2-3-6.3-0.9c-1.2,0.6-2,0.3-3-0.9
		C943.4,386.5,943,386.1,942.6,385.8L942.6,385.8z M1007.9,378.5c0.2-0.2,0.5-0.3,0.7-0.5c2.1-2.6,3.3-5.7,4.4-8.8
		c0.8-2.2,1.3-4.4,1.4-6.8c0.1-2.2,0.4-2.2-1.7-2.2c-0.2,0-0.4,0-0.6,0c-5.6,0-11.2,1-16.8,0.6c-0.2,0-0.4,0-0.6,0
		c-0.3,0.2-0.8,0.3-1,0.6c-0.5,1-1.2,2.1-1.3,3.2c-0.1,0.4,1.2,0.9,1.7,1.4c0.7,0.7,6.6,6,8.1,7.6
		C1002.4,373.8,1006.2,377.1,1007.9,378.5z M1003.9,383.2c-1.6-2.6-13.3-12.5-14.6-13.7c-0.4-0.3-1.1-0.5-1.6-0.4
		c-1.7,0.4-2.2,1.1-2.1,3c0.2,4.6,0.4,9.2,0.6,13.8c0,1.2,0,2.4,0,3.6c0,1.5,0.1,1.5,1.5,1.5c0.7,0,1.4-0.1,2-0.3
		c1.6-0.5,3.2-0.9,4.7-1.5C997.8,387.8,1001.2,386.1,1003.9,383.2z M1014.2,354.1c0-0.2,0-0.3,0-0.4c-1.2-5.2-3.1-10.1-6.6-14.1
		c-2.7-3.1-2-2.7-4.6-0.2c-0.4,0.4-0.9,0.8-1.3,1.3c-3,3.4-6,6.8-9,10.2c-1.4,1.6-1.5,1.7-0.5,3.6c0.1,0.3,0.4,0.5,0.5,0.8
		c0.2,0.8,0.9,1,1.3,0.7c1.3-0.8,2.7-0.4,4.1-0.5c5-0.2,10-0.4,15-0.6c0.2,0,0.4,0,0.6-0.1C1013.9,354.5,1014,354.3,1014.2,354.1z
		 M980.2,380.2c0.1,0-0.1-7.7,0-8.3c0.1-1-0.1-1.9-1.1-2.1c-1-0.2-2.2-1.4-3.1,0.3c-0.2,0.3-0.6,0.6-0.8,0.9
		c-3.9,4.3-7.8,8.6-11.7,12.9c-0.7,0.8-0.6,1.2,0.3,1.9c4,2.8,9.9,5.1,15.9,6.1c0.7,0.1,1.2-2.1,1.1-2.7
		C980.6,386,980.4,383.1,980.2,380.2z M951,365.1C951,365.1,951,365.1,951,365.1c0,0.4-0.1,0.8,0,1.2c1,5.3,3.7,9.7,6.8,14
		c0.1,0.1,0.1,0.1,0.2,0.2c0.6,0.6,3.8-3.4,5.1-4.8c2.8-3,5.7-6,8.5-9.1c1.1-1.2,1.1-1.7,0.6-3.1c-0.5-1.3-1.5-1-2.4-1
		c-2.5,0-13.2,0.8-16,0.6c-0.6,0-1.2-0.1-1.8,0c-0.4,0.1-0.7,0.5-0.9,0.8C950.8,364.3,951,364.7,951,365.1z M983.2,327.3
		c0,1.1,0,1.9,0,2.6c0.2,5.5,0.4,11,0.6,16.5c0.1,1.8,0.1,1.6,2.2,2.5c1.4,0.6,1.7-0.2,2.1-1.1c0.2-0.4,0.6-0.7,1-1.1
		c2.9-3.1,5.8-6.2,8.7-9.3c1.2-1.3,2.1-2.7,3.2-4c-2.6-2-5.4-3.3-8.3-4.4C989.6,328,986.5,328.1,983.2,327.3z M978.4,344.6
		C978.4,344.6,978.3,344.6,978.4,344.6c-0.2-4.9-0.4-9.8-0.6-14.8c0-0.2,0-0.4,0-0.6c0-0.1,0-0.2,0-0.3c-0.4-0.6-0.7-1.2-1.6-0.8
		c-1.7,0.6-3.6,0.9-5.3,1.6c-3.3,1.3-6.5,2.8-9,5.4c-1,1.1-1.1,1.2-0.1,2.1c1.8,1.7,3.7,3.3,5.5,4.9c2.6,2.3,5.1,4.7,7.6,7
		c0.6,0.6,1.2,1,2.1,0.5c0.8-0.4,1.5-0.8,1.4-1.9C978.3,346.8,978.4,345.7,978.4,344.6z M957.2,340.5c-1.9,1.8-3,4-3.9,6.2
		c-1.2,2.8-2.4,5.5-2.3,8.6c0.1,2.6-0.2,2.5,2.4,2.4c3.2-0.2,6.4-0.7,9.7-0.6c2.4,0.1,4.8,0,7.1,0c1,0,1.6-0.2,2-1.2
		c0.5-1,0.1-1.7-0.6-2.3c-1.7-1.5-3.4-3-5.1-4.5C963.4,346.3,960.4,343.5,957.2,340.5z M982.7,354.1c-3.5,0-6.1,2.2-6.1,5.3
		c0,2.9,2.5,5.4,5.4,5.4c3.4,0.1,5.9-2.3,5.9-5.6C987.9,356.6,985.5,354.2,982.7,354.1z"/>
	<path class="st15" d="M816.4,155.7c1.5-1.1,2.8-2.3,4.3-3.2c1.8-1.2,2.9-0.9,4,0.9c0.3,0.4,0.6,0.9,0.7,1.3c0.4,1.5,1.6,1.9,3,1.7
		c1.6-0.2,3.2-0.5,4.7-0.9c0.4-0.1,0.6-0.9,0.7-1.5c0.3-1.3,0.3-2.7,0.7-4c0.1-0.5,0.8-1.1,1.2-1.1c1.4-0.1,2.8-0.1,4.1,0.2
		c2.5,0.6,2.8,0.7,2.4,3.2c-0.5,3.2,1.2,4.5,3.6,5.5c2.5,1.1,2.5,1.2,4.5-0.8c0.3-0.3,0.5-0.5,0.8-0.8c2-1.9,2-1.9,4.3,0
		c0.2,0.2,0.4,0.4,0.6,0.5c3.6,2.7,3.6,2.7,0.8,6c-1.3,1.5-1.3,2-0.1,4c0.1,0.2,0.1,0.5,0.3,0.7c0.6,1.1,1,2.6,1.9,3.1
		c0.9,0.4,2.3-0.3,3.5-0.5c2.4-0.3,2.9,0.1,3.5,2.6c0.3,1.2,0.6,2.4,0.7,3.6c0.1,1.2-0.6,1.9-1.7,2.1c-0.6,0.1-1.2,0.1-1.8,0.3
		c-2.4,0.7-2.4,0.7-2.5,3.2c0,0.9,0,1.8-0.4,2.6c-0.7,1.4-0.3,2.1,1,2.6c0.8,0.3,1.6,0.8,2.3,1.2c1.7,1,2.1,1.8,1.3,3.7
		c-0.3,0.7-0.7,1.3-1,2c-1.5,2.7-1.8,2.8-4.5,1.7c-0.5-0.2-1-0.3-1.3-0.7c-1.1-0.9-1.8-0.4-2.5,0.4c-0.7,0.8-1.5,1.4-2.1,2.2
		c-1,1.4-1.5,2.8-0.3,4.5c0.7,1,1.5,2.4,1.2,3.3c-0.3,0.9-1.9,1.3-3,2c-0.4,0.3-0.8,0.7-1.2,0.9c-1.6,1-2.9,0.7-3.8-0.8
		c-0.7-1.1-0.7-3-2.4-3.1c-1.3-0.1-2.7,0.4-4,0.6c-2.8,0.6-2.8,0.6-2.8,3.3c0,0.5,0,1,0,1.5c-0.1,1.4-0.8,2.1-2.2,2
		c-1.8-0.2-3.7-0.5-5.5-0.8c-0.2,0-0.5-0.5-0.6-0.8c-0.1-0.5,0-1-0.1-1.5c-0.1-1.4,0.3-3.2-0.4-4c-1.1-1.2-2.9-1.8-4.5-2.5
		c-0.6-0.2-1.5,0-2,0.4c-1,0.7-1.8,1.8-2.7,2.6c-0.9,0.8-1.8,0.8-2.7,0c-0.5-0.4-0.9-0.9-1.3-1.3c-1-1.1-2-2.3-2.9-3.4
		c0.9-1,1.7-2.2,2.7-3.1c1-0.9,1.2-1.8,0.3-2.9c-0.7-1-1.5-2-1.9-3.2c-0.6-1.5-1.4-1.8-2.9-1c-0.7,0.4-1.7,0.3-2.6,0.3
		c-1.9,0-2.2-0.4-2.6-2.4c-0.2-1-0.5-1.9-0.7-2.9c-0.4-1.9,0.3-2.8,2.3-3.1c0.7-0.1,1.5-0.1,2.2-0.4c1-0.3,1.8-0.8,1.6-2.1
		c-0.1-0.9-0.1-1.8,0-2.7c0.1-0.9,0.8-2.1,0.4-2.8c-0.4-0.7-1.6-1-2.5-1.4c-0.6-0.3-1.1-0.5-1.7-0.9c-0.8-0.6-1.1-1.4-0.7-2.3
		c0.4-0.8,1.1-1.5,1.2-2.3c0.1-1.3,0.6-2.3,1.6-2.8c1.1-0.6,2,0.5,2.9,0.9c2.6,1,2.6,1,4.8-1.1c0.5-0.4,0.9-0.9,1.3-1.4
		c0.6-0.7,1.3-1.3,1.5-2.1c0.1-0.5-0.8-1.2-1.2-1.8c-0.3-0.5-0.6-1.1-0.9-1.7C816.9,157,816.7,156.6,816.4,155.7z M843.8,181.4
		c-0.1-2.9-0.5-5-2.1-6.8c-1.8-2.1-4.4-2.5-6.8-2.7c-1.7-0.1-3.9,1-5.3,2.3c-1.8,1.5-2.7,3.8-2.7,6.4c0.1,5.2,4.3,8.8,8.1,8.6
		C840.8,188.7,844.3,184.9,843.8,181.4z"/>
	<g>
		<path class="st41" d="M346.1,328.6c-0.1-1.2,0.2-1.8,1.7-2.1c2-0.4,2.8-2.9,1.9-4.8c-0.4-0.9-1.2-1.1-2.2-1.1
			c-3-0.2-3.2-0.4-3-3.2c0.1-1.4,0.7-2.1,2.1-2.1c0.6,0,1.3,0,1.9,0c1,0,1.3-0.4,1.4-1.4c0-0.5,0-1.1,0.3-1.4
			c0.9-1.2,0.1-1.8-0.7-2.4c-0.2-0.1-0.5-0.1-0.7-0.2c-2-1.1-2.3-2.2-1.6-4.2c0.6-1.6,0.9-1.8,2.8-1.3c2.7,0.7,2.9,0.5,4.1-1.7
			c0.7-1.2,0.4-2.1-0.5-3c-0.6-0.6-1.4-1.5-1.3-2.1c0.3-1.1,1-2.2,1.8-3.1c0.3-0.3,1.4,0,2,0.3c0.9,0.4,1.7,1.6,2.4,1.5
			c0.8-0.1,1.4-1.3,2.3-1.9c1.2-0.8,0.9-1.7,0.4-2.8c-0.9-1.9-0.6-2.8,0.9-3.8c1.3-0.8,2.6-0.5,4,0.9c0.6,0.5,0.4,2.4,2,1.4
			c1.3-0.9,3.6-0.9,3.1-3.5c0-0.1,0-0.3,0-0.4c0.1-2.3,0.1-2.1,2.2-3.1c1.4-0.6,2.1-0.4,2.6,1c0.2,0.5,0.4,0.9,0.6,1.4
			c0.9,1.8,1.5,2.1,3.1,1.9c1.6-0.2,2.4-1.2,2.8-2.6c0.1-0.5-0.1-1.1,0.2-1.5c0.4-0.8,0.9-1.5,2.1-0.9c0.5,0.3,1.2,0.4,1.8,0.4
			c1,0,1.4,0.5,1.3,1.4c0,0.3,0,0.5,0,0.8c0.2,2.5,1.2,3.6,3.5,3.8c0.3,0,0.7-0.2,0.9-0.4c0.4-0.5,0.7-1,1-1.5
			c0.7-0.9,1-2.4,2.8-1.4c2.2,1.1,2.7,1.7,2.3,3.7c-0.1,0.7-1.1,1.3-0.3,2c0.8,0.8,1.6,1.6,2.5,2.3c0.3,0.2,1,0.1,1.4-0.2
			c0.5-0.3,0.9-0.9,1.4-1.2c1.4-1.1,1.8-1.1,3.2,0.2c0.5,0.4,1,0.8,1.3,1.4c0.2,0.3,0.2,0.9,0.1,1.3c-0.2,0.4-0.7,0.7-0.9,1.2
			c-1.4,2.3-0.9,4.4,1.5,5.5c0.6,0.3,1.7-0.2,2.3-0.6c0.9-0.5,1.7-1,2.2,0.1c0.6,1.1,1.9,2.2,0.9,3.7c-0.2,0.3-0.5,0.7-0.8,0.8
			c-2.1,0.9-2,2.2-1.3,4.2c0.6,1.5,1.2,2,2.7,2c0.6,0,1.3,0,1.9,0.1c0.2,0,0.5,0.2,0.6,0.3c1,1.3-0.1,4.8-1.7,4.8
			c-1.9,0.1-1.8,1-1.9,2.4c-0.1,1.9,0.2,3,2.3,3.4c1.4,0.3,2.3,3.2,1.4,4.3c-0.3,0.4-1.3,0.5-2,0.5c-2.7,0.2-3,0.7-4,3
			c-0.5,1.3-0.1,1.8,0.7,2.5c0.3,0.2,0.6,0.4,0.9,0.6c1.6,1.1,1.6,1.1,0.8,2.9c-0.1,0.2-0.2,0.5-0.3,0.7c-1.1,2.1-1.8,2.3-3.8,1.1
			c-1.8-1-1.8-1-2.8,0.6c-0.3,0.5-0.8,1-1,1.5c-0.2,0.5-0.2,1.1,0,1.6c0.3,0.7,0.8,1.2,1.2,1.9c0.2,0.3,0.4,0.7,0.3,1
			c-0.8,2.2-3.6,3.1-5.2,1.7c-1-0.9-1.8-1.6-3.1-0.7c-1.3,0.9-2.3,2-1.9,3.8c0.2,0.8,1.3,1.5,0.2,2.3c-1.1,0.9-2.3,1.7-3.7,1.4
			c-0.4-0.1-0.8-0.5-1.1-0.8c-0.4-0.5-0.5-1.1-0.8-1.7c-0.6-0.9-1.2-1.7-2.4-0.8c-0.4,0.3-1,0.3-1.4,0.3c-1.3-0.1-1.4,0.7-1.4,1.7
			c0,0.5,0,1,0,1.5c0,1.4-0.7,2.1-2.1,2.1c-0.5,0-1,0-1.5,0c-1.4,0.2-1.8-0.5-1.7-1.8c0.1-1.6-0.4-2.5-2.2-2.9
			c-2.6-0.6-2.5-0.8-3.9,1.5c-0.2,0.3-0.3,0.7-0.5,1c-0.6,0.7-1.1,1.3-2.4,0.8c-1.3-0.5-2.4-0.7-2.4-2.3c0-0.6,0-1.3,0-1.9
			c0-1.9-1.7-2-2.8-2.6c-1-0.5-2,0.2-2.4,1.2c-0.4,1-1.1,2.1-2.1,1.6c-1.2-0.5-2.1-1.6-3.1-2.6c-0.2-0.2,0.2-0.9,0.4-1.3
			c1.3-3,1.2-3.6-1.2-5.3c-0.4-0.3-1.1-0.2-1.6-0.1c-0.3,0.1-0.5,0.5-0.9,0.7c-2.3,1.4-2.3,1.4-3.9-1c-1.4-2.1-1.4-2.1,0.5-3.8
			c1.4-1.2,1.7-2.7,0.7-4.1c-0.5-0.7-1.2-1.8-2.4-0.7c-0.2,0.1-0.5,0-0.7,0.1C346.8,332.5,346.1,331.8,346.1,328.6z M406.2,318.5
			c0.4-13.7-11.2-24.3-24.6-24.6c-13.6-0.3-25,12.1-25,24.3c0,6.9,2.2,12.9,6.8,17.7c5.2,5.4,11.9,7.7,19.6,7.6
			c6.4-0.1,11.6-3.1,15.9-7.1C403.7,331.8,406.4,325.8,406.2,318.5z"/>
		<path class="st41" d="M391.8,318.9c-0.8,6.8-3.5,9.5-11.4,10c-1.8,0.1-3.2-0.7-4.5-1.6c-1.2-0.8-2.5-1.9-3-3.2
			c-0.7-1.8-1.6-3.6-1.7-5.7c-0.2-4.6,5.8-10.5,10.6-10.2C386.9,308.7,391.8,313.7,391.8,318.9z"/>
	</g>
	<path class="st39" d="M1196.6,294.4c0,0-11.4,1.9-10.4,13.8s24.2,40.4,17.6,48.4c-6.6,8.1-31.5,11.7-53.8,11.7
		c0,0-0.8,15.7-0.1,14.4c1-2,36.8-1,50.1-4.3c13.3-3.3,24.6-7.6,24.4-14.2C1224.2,357.6,1221.1,299.4,1196.6,294.4z"/>
</g>
<g id="DESIGNED_BY_FREEPIK">
	<rect x="-295" y="-835.5" class="st0" width="1440" height="1024"/>
</g>
</svg>
