<?xml version="1.0" encoding="utf-8"?>
<!-- Generator: Adobe Illustrator 16.0.0, SVG Export Plug-In . SVG Version: 6.00 Build 0)  -->
<!DOCTYPE svg PUBLIC "-//W3C//DTD SVG 1.1//EN" "http://www.w3.org/Graphics/SVG/1.1/DTD/svg11.dtd">
<svg version="1.1" xmlns="http://www.w3.org/2000/svg" xmlns:xlink="http://www.w3.org/1999/xlink" viewBox="0 0 251 251"><g fill="none" fill-rule="nonzero" stroke="none" stroke-width="1" stroke-linecap="butt" stroke-linejoin="miter" stroke-miterlimit="10" stroke-dasharray="" stroke-dashoffset="0" font-family="none" font-weight="none" font-size="none" text-anchor="none" style="mix-blend-mode: normal"><path d="M0,251.99519v-251.99519h251.99519v251.99519z" fill="none"></path><g fill="#ffffff"><g id="surface1"><path d="M219.625,67.97917l-47.0625,-41.83333v83.66667z"></path><path d="M177.79167,83.66667c0,0 -94.125,-0.02043 -99.35417,0c-5.22917,0 -5.22917,5.20874 -5.22917,5.20874v20.93709h-31.375v-26.14583c0,-17.30119 14.07381,-31.375 31.375,-31.375h104.58333z"></path><path d="M31.375,183.02083l47.0625,41.83333v-83.66667z"></path><path d="M73.20833,167.35376c0,0 94.125,0 99.35417,0c5.22917,-0.02043 5.22917,-5.22917 5.22917,-5.22917v-20.93709h31.375v26.16626c0,17.28076 -14.07381,31.35457 -31.375,31.35457h-104.58333z"></path></g></g></g></svg>
